G04*
G04 #@! TF.GenerationSoftware,Altium Limited,Altium Designer,23.3.1 (30)*
G04*
G04 Layer_Color=32896*
%FSLAX44Y44*%
%MOMM*%
G71*
G04*
G04 #@! TF.SameCoordinates,610A2BD2-EBF3-4158-A638-8146B1F39EFF*
G04*
G04*
G04 #@! TF.FilePolarity,Positive*
G04*
G01*
G75*
%ADD10C,0.2000*%
%ADD15C,0.1270*%
%ADD16C,0.1524*%
%ADD17C,0.2540*%
D10*
X275800Y265000D02*
G03*
X275800Y265000I-1800J0D01*
G01*
D15*
X238500Y238500D02*
Y240500D01*
X269500Y238500D02*
Y240500D01*
X238500Y267500D02*
Y269500D01*
X269500Y267500D02*
Y269500D01*
X257500D02*
X269500D01*
X257500Y238500D02*
X269500D01*
X238500Y269500D02*
X250500D01*
X238500Y238500D02*
X250500D01*
D16*
X211074Y221996D02*
X223774D01*
X217424Y229616D02*
X218694Y221996D01*
X217424Y229616D02*
X219964Y221996D01*
X217424Y229616D02*
X221234Y221996D01*
X217424Y229616D02*
X222504Y221996D01*
X217424Y229616D02*
X223774Y221996D01*
X216154D02*
X217424Y229616D01*
X214884Y221996D02*
X217424Y229616D01*
X213614Y221996D02*
X217424Y229616D01*
X212344Y221996D02*
X217424Y229616D01*
X211074Y221996D02*
X217424Y229616D01*
X223774D01*
X211074D02*
X217424D01*
Y232156D01*
Y220218D02*
Y229616D01*
X284734Y221996D02*
X297434D01*
X291084Y229616D02*
X292354Y221996D01*
X291084Y229616D02*
X293624Y221996D01*
X291084Y229616D02*
X294894Y221996D01*
X291084Y229616D02*
X296164Y221996D01*
X291084Y229616D02*
X297434Y221996D01*
X289814D02*
X291084Y229616D01*
X288544Y221996D02*
X291084Y229616D01*
X287274Y221996D02*
X291084Y229616D01*
X286004Y221996D02*
X291084Y229616D01*
X284734Y221996D02*
X291084Y229616D01*
X297434D01*
X284734D02*
X291084D01*
Y232156D01*
Y220218D02*
Y229616D01*
D17*
X406393Y259079D02*
X402585D01*
X401315Y260349D01*
X402585Y261619D01*
X405124D01*
X406393Y262888D01*
X405124Y264158D01*
X401315D01*
X394967Y259079D02*
X397506D01*
X398776Y260349D01*
Y262888D01*
X397506Y264158D01*
X394967D01*
X393698Y262888D01*
Y261619D01*
X398776D01*
X391158Y259079D02*
Y264158D01*
X387350D01*
X386080Y262888D01*
Y259079D01*
X383541D02*
X381002D01*
X382271D01*
Y264158D01*
X383541D01*
X375923Y259079D02*
X373384D01*
X372114Y260349D01*
Y262888D01*
X373384Y264158D01*
X375923D01*
X377193Y262888D01*
Y260349D01*
X375923Y259079D01*
X369575Y264158D02*
Y259079D01*
Y261619D01*
X368306Y262888D01*
X367036Y264158D01*
X365767D01*
X401950Y251460D02*
Y243842D01*
X405759D01*
X407028Y245112D01*
Y247651D01*
X405759Y248921D01*
X401950D01*
X395602Y243842D02*
X398141D01*
X399411Y245112D01*
Y247651D01*
X398141Y248921D01*
X395602D01*
X394332Y247651D01*
Y246381D01*
X399411D01*
X391793Y243842D02*
X387984D01*
X386715Y245112D01*
X387984Y246381D01*
X390524D01*
X391793Y247651D01*
X390524Y248921D01*
X386715D01*
X384176Y243842D02*
X381636D01*
X382906D01*
Y248921D01*
X384176D01*
X375289Y241303D02*
X374019D01*
X372749Y242573D01*
Y248921D01*
X376558D01*
X377828Y247651D01*
Y245112D01*
X376558Y243842D01*
X372749D01*
X370210D02*
Y248921D01*
X366401D01*
X365132Y247651D01*
Y243842D01*
X305404Y387862D02*
X309213D01*
X310483Y386593D01*
Y384053D01*
X309213Y382784D01*
X305404D01*
X301596Y387862D02*
X299056D01*
X297787Y386593D01*
Y382784D01*
X301596D01*
X302865Y384053D01*
X301596Y385323D01*
X297787D01*
X295248Y387862D02*
Y382784D01*
Y385323D01*
X293978Y386593D01*
X292708Y387862D01*
X291439D01*
X282552Y390401D02*
Y382784D01*
X286360D01*
X287630Y384053D01*
Y386593D01*
X286360Y387862D01*
X282552D01*
X280013Y382784D02*
X277473D01*
X278743D01*
Y387862D01*
X280013D01*
X272395D02*
X269856D01*
X268586Y386593D01*
Y382784D01*
X272395D01*
X273665Y384053D01*
X272395Y385323D01*
X268586D01*
X260969Y387862D02*
X264778D01*
X266047Y386593D01*
Y384053D01*
X264778Y382784D01*
X260969D01*
X250812Y387862D02*
Y384053D01*
X249542Y382784D01*
X248273Y384053D01*
X247003Y382784D01*
X245734Y384053D01*
Y387862D01*
X239386Y382784D02*
X241925D01*
X243195Y384053D01*
Y386593D01*
X241925Y387862D01*
X239386D01*
X238116Y386593D01*
Y385323D01*
X243195D01*
X234307Y387862D02*
X231768D01*
X230499Y386593D01*
Y382784D01*
X234307D01*
X235577Y384053D01*
X234307Y385323D01*
X230499D01*
X227959Y387862D02*
Y382784D01*
Y385323D01*
X226690Y386593D01*
X225420Y387862D01*
X224151D01*
X219072D02*
X216533D01*
X215264Y386593D01*
Y382784D01*
X219072D01*
X220342Y384053D01*
X219072Y385323D01*
X215264D01*
X212724Y390401D02*
Y382784D01*
X208916D01*
X207646Y384053D01*
Y385323D01*
Y386593D01*
X208916Y387862D01*
X212724D01*
X205107Y382784D02*
X202568D01*
X203837D01*
Y390401D01*
X205107D01*
X194950Y382784D02*
X197489D01*
X198759Y384053D01*
Y386593D01*
X197489Y387862D01*
X194950D01*
X193680Y386593D01*
Y385323D01*
X198759D01*
X260348Y280669D02*
Y274321D01*
X259078Y273051D01*
X256539D01*
X255270Y274321D01*
Y280669D01*
X252730Y279399D02*
X251461Y280669D01*
X248922D01*
X247652Y279399D01*
Y278130D01*
X248922Y276860D01*
X250191D01*
X248922D01*
X247652Y275590D01*
Y274321D01*
X248922Y273051D01*
X251461D01*
X252730Y274321D01*
X229866Y280669D02*
Y273051D01*
X224788D01*
X217170Y280669D02*
X222248D01*
Y273051D01*
X217170D01*
X222248Y276860D02*
X219709D01*
X214631Y280669D02*
Y273051D01*
X210822D01*
X209552Y274321D01*
Y279399D01*
X210822Y280669D01*
X214631D01*
X207013Y273051D02*
X204474D01*
X205744D01*
Y280669D01*
X207013Y279399D01*
X304795Y280669D02*
Y273051D01*
X299717D01*
X292100Y280669D02*
X297178D01*
Y273051D01*
X292100D01*
X297178Y276860D02*
X294639D01*
X289560Y280669D02*
Y273051D01*
X285752D01*
X284482Y274321D01*
Y279399D01*
X285752Y280669D01*
X289560D01*
X276864Y273051D02*
X281943D01*
X276864Y278130D01*
Y279399D01*
X278134Y280669D01*
X280673D01*
X281943Y279399D01*
M02*
