M48
;Layer_Color=9474304
;FILE_FORMAT=4:4
METRIC,LZ
;TYPE=PLATED
T1F00S00C0.2032
T3F00S00C1.0200
T4F00S00C1.1000
T5F00S00C2.1590
;TYPE=NON_PLATED
T6F00S00C0.5000
%
T01
X0014605Y0024638
X0014732Y0025654
X001651
X0019939Y0025273
X0019812Y0024257
X0019431Y0023241
X0018161
X0019939Y0026543
X0023368Y002667
Y0025654
X00254Y00254
X0027305Y0025654
X0026543Y0023368
X0027178Y0022606
X0028575Y0023495
X0031115Y0022479
X0033401Y0019431
X0036437Y0016891
X0028448Y0018669
X0023876Y0022098
X0021372Y0021082
X00214755Y00305835
X0024892Y0030316
X0026416
Y0028067
X002794
X0024892
X0029972Y0031102
X0033274Y0029845
X0018415Y0034036
X0014478Y0032131
T03
X001905Y0037973
X002159
X002413
X002667
X002921
X003175
T04
X0031369Y0014097
X0033909
T05
X00254Y001016
X0014859Y0036576
X0035941
T06
X004014Y00221
Y00287
M30
