G04*
G04 #@! TF.GenerationSoftware,Altium Limited,Altium Designer,23.3.1 (30)*
G04*
G04 Layer_Color=8421504*
%FSLAX44Y44*%
%MOMM*%
G71*
G04*
G04 #@! TF.SameCoordinates,610A2BD2-EBF3-4158-A638-8146B1F39EFF*
G04*
G04*
G04 #@! TF.FilePolarity,Positive*
G04*
G01*
G75*
%ADD18R,0.7500X0.7500*%
G04:AMPARAMS|DCode=19|XSize=0.65mm|YSize=0.3mm|CornerRadius=0.075mm|HoleSize=0mm|Usage=FLASHONLY|Rotation=0.000|XOffset=0mm|YOffset=0mm|HoleType=Round|Shape=RoundedRectangle|*
%AMROUNDEDRECTD19*
21,1,0.6500,0.1500,0,0,0.0*
21,1,0.5000,0.3000,0,0,0.0*
1,1,0.1500,0.2500,-0.0750*
1,1,0.1500,-0.2500,-0.0750*
1,1,0.1500,-0.2500,0.0750*
1,1,0.1500,0.2500,0.0750*
%
%ADD19ROUNDEDRECTD19*%
%ADD20R,0.6500X0.3000*%
%ADD21R,0.5750X0.5750*%
G04:AMPARAMS|DCode=22|XSize=0.65mm|YSize=0.3mm|CornerRadius=0.075mm|HoleSize=0mm|Usage=FLASHONLY|Rotation=90.000|XOffset=0mm|YOffset=0mm|HoleType=Round|Shape=RoundedRectangle|*
%AMROUNDEDRECTD22*
21,1,0.6500,0.1500,0,0,90.0*
21,1,0.5000,0.3000,0,0,90.0*
1,1,0.1500,0.0750,0.2500*
1,1,0.1500,0.0750,-0.2500*
1,1,0.1500,-0.0750,-0.2500*
1,1,0.1500,-0.0750,0.2500*
%
%ADD22ROUNDEDRECTD22*%
%ADD23R,0.3000X0.6500*%
%ADD24R,0.7400X2.7900*%
%ADD25O,2.0000X0.6000*%
%ADD26R,0.9300X0.7900*%
%ADD27R,1.0200X1.0400*%
%ADD28R,1.4478X0.7620*%
%ADD29R,0.8000X0.8000*%
%ADD30R,0.9000X0.6500*%
%ADD31R,1.0400X0.9700*%
G04:AMPARAMS|DCode=32|XSize=0.93mm|YSize=0.93mm|CornerRadius=0.2325mm|HoleSize=0mm|Usage=FLASHONLY|Rotation=180.000|XOffset=0mm|YOffset=0mm|HoleType=Round|Shape=RoundedRectangle|*
%AMROUNDEDRECTD32*
21,1,0.9300,0.4650,0,0,180.0*
21,1,0.4650,0.9300,0,0,180.0*
1,1,0.4650,-0.2325,0.2325*
1,1,0.4650,0.2325,0.2325*
1,1,0.4650,0.2325,-0.2325*
1,1,0.4650,-0.2325,-0.2325*
%
%ADD32ROUNDEDRECTD32*%
G04:AMPARAMS|DCode=33|XSize=0.93mm|YSize=0.93mm|CornerRadius=0.2325mm|HoleSize=0mm|Usage=FLASHONLY|Rotation=90.000|XOffset=0mm|YOffset=0mm|HoleType=Round|Shape=RoundedRectangle|*
%AMROUNDEDRECTD33*
21,1,0.9300,0.4650,0,0,90.0*
21,1,0.4650,0.9300,0,0,90.0*
1,1,0.4650,0.2325,0.2325*
1,1,0.4650,0.2325,-0.2325*
1,1,0.4650,-0.2325,-0.2325*
1,1,0.4650,-0.2325,0.2325*
%
%ADD33ROUNDEDRECTD33*%
%ADD34R,0.9700X0.9200*%
%ADD35R,1.2600X0.5800*%
%ADD36R,1.2700X0.5588*%
%ADD37R,0.7000X0.3000*%
%ADD38R,0.3000X0.7000*%
%ADD39R,0.9700X1.0400*%
%ADD40R,0.9000X1.0000*%
%ADD41R,1.9000X1.9000*%
%ADD42R,1.4000X1.6000*%
%ADD43R,1.3500X0.4000*%
%ADD44R,0.7900X0.9300*%
G04:AMPARAMS|DCode=45|XSize=1.36mm|YSize=0.6mm|CornerRadius=0.045mm|HoleSize=0mm|Usage=FLASHONLY|Rotation=180.000|XOffset=0mm|YOffset=0mm|HoleType=Round|Shape=RoundedRectangle|*
%AMROUNDEDRECTD45*
21,1,1.3600,0.5100,0,0,180.0*
21,1,1.2700,0.6000,0,0,180.0*
1,1,0.0900,-0.6350,0.2550*
1,1,0.0900,0.6350,0.2550*
1,1,0.0900,0.6350,-0.2550*
1,1,0.0900,-0.6350,-0.2550*
%
%ADD45ROUNDEDRECTD45*%
D18*
X177170Y280780D02*
D03*
X186170D02*
D03*
X195170D02*
D03*
X204170D02*
D03*
Y271780D02*
D03*
X195170D02*
D03*
X186170D02*
D03*
X177170D02*
D03*
X168170D02*
D03*
Y280780D02*
D03*
Y289780D02*
D03*
X177170D02*
D03*
X186170D02*
D03*
X195170D02*
D03*
X204170D02*
D03*
X213170D02*
D03*
Y280780D02*
D03*
Y271780D02*
D03*
Y262780D02*
D03*
X204170D02*
D03*
X195170D02*
D03*
X186170D02*
D03*
X177170D02*
D03*
X168170D02*
D03*
X124820Y306780D02*
D03*
Y245780D02*
D03*
D19*
X153670Y249280D02*
D03*
Y303280D02*
D03*
X227670D02*
D03*
Y249280D02*
D03*
D20*
X153670Y253780D02*
D03*
Y258280D02*
D03*
Y262780D02*
D03*
Y267280D02*
D03*
Y271780D02*
D03*
Y276280D02*
D03*
Y280780D02*
D03*
Y285280D02*
D03*
Y289780D02*
D03*
Y294280D02*
D03*
Y298780D02*
D03*
X227670D02*
D03*
Y294280D02*
D03*
Y289780D02*
D03*
Y285280D02*
D03*
Y280780D02*
D03*
Y276280D02*
D03*
Y271780D02*
D03*
Y267280D02*
D03*
Y262780D02*
D03*
Y258280D02*
D03*
Y253780D02*
D03*
D21*
X153300Y309150D02*
D03*
X228040D02*
D03*
Y243410D02*
D03*
X153300D02*
D03*
D22*
X159170Y308780D02*
D03*
X222170D02*
D03*
Y243780D02*
D03*
X159170D02*
D03*
D23*
X163670Y308780D02*
D03*
X168170D02*
D03*
X172670D02*
D03*
X177170D02*
D03*
X181670D02*
D03*
X186170D02*
D03*
X190670D02*
D03*
X195170D02*
D03*
X199670D02*
D03*
X204170D02*
D03*
X208670D02*
D03*
X213170D02*
D03*
X217670D02*
D03*
Y243780D02*
D03*
X213170D02*
D03*
X208670D02*
D03*
X204170D02*
D03*
X199670D02*
D03*
X195170D02*
D03*
X190670D02*
D03*
X186170D02*
D03*
X181670D02*
D03*
X177170D02*
D03*
X172670D02*
D03*
X168170D02*
D03*
X163670D02*
D03*
D24*
X279400Y393730D02*
D03*
Y353030D02*
D03*
X266700Y393730D02*
D03*
Y353030D02*
D03*
X254000Y393730D02*
D03*
Y353030D02*
D03*
X241300Y393730D02*
D03*
Y353030D02*
D03*
X228600Y393730D02*
D03*
Y353030D02*
D03*
D25*
X255670Y168910D02*
D03*
Y156210D02*
D03*
Y143510D02*
D03*
Y130810D02*
D03*
X305670Y168910D02*
D03*
Y156210D02*
D03*
Y143510D02*
D03*
Y130810D02*
D03*
D26*
X207010Y363910D02*
D03*
Y380310D02*
D03*
X298450Y391740D02*
D03*
Y375340D02*
D03*
D27*
X190500Y356600D02*
D03*
Y341900D02*
D03*
X317500Y359140D02*
D03*
Y344440D02*
D03*
D28*
X190500Y369062D02*
D03*
Y390398D02*
D03*
D29*
X317500Y391790D02*
D03*
Y375290D02*
D03*
D30*
X349250Y211190D02*
D03*
Y225690D02*
D03*
X223520Y214260D02*
D03*
Y199760D02*
D03*
X256127Y222446D02*
D03*
Y207946D02*
D03*
D31*
X277220Y280670D02*
D03*
X291740D02*
D03*
X261260Y289560D02*
D03*
X246740D02*
D03*
X167280Y224790D02*
D03*
X152760D02*
D03*
X221890Y325120D02*
D03*
X207370D02*
D03*
D32*
X365640Y196850D02*
D03*
X350640D02*
D03*
D33*
X290830Y189350D02*
D03*
Y204350D02*
D03*
D34*
X318770Y308480D02*
D03*
Y323980D02*
D03*
X252730D02*
D03*
Y308480D02*
D03*
X287020Y261750D02*
D03*
Y246250D02*
D03*
D35*
X300040Y304190D02*
D03*
Y313690D02*
D03*
Y323190D02*
D03*
X276540D02*
D03*
Y304190D02*
D03*
D36*
X308356Y220218D02*
D03*
Y210820D02*
D03*
Y201422D02*
D03*
X334264D02*
D03*
Y220218D02*
D03*
D37*
X244500Y261500D02*
D03*
Y256500D02*
D03*
Y251500D02*
D03*
Y246500D02*
D03*
X263500D02*
D03*
Y251500D02*
D03*
Y256500D02*
D03*
Y261500D02*
D03*
D38*
X251500Y244500D02*
D03*
X256500D02*
D03*
Y263500D02*
D03*
X251500D02*
D03*
D39*
X239538Y216911D02*
D03*
Y202391D02*
D03*
X273050Y216810D02*
D03*
Y202290D02*
D03*
X190500Y220620D02*
D03*
Y206100D02*
D03*
X207010Y216810D02*
D03*
Y202290D02*
D03*
D40*
X125550Y206120D02*
D03*
X166550D02*
D03*
Y190120D02*
D03*
X125550D02*
D03*
D41*
X401400Y266000D02*
D03*
Y242000D02*
D03*
D42*
X376900Y286000D02*
D03*
Y222000D02*
D03*
D43*
X374650Y267000D02*
D03*
Y260500D02*
D03*
Y254000D02*
D03*
Y247500D02*
D03*
Y241000D02*
D03*
D44*
X324540Y275590D02*
D03*
X340940D02*
D03*
D45*
X344490Y240690D02*
D03*
Y250190D02*
D03*
Y259690D02*
D03*
X320990D02*
D03*
Y250190D02*
D03*
Y240690D02*
D03*
M02*
