G04*
G04 #@! TF.GenerationSoftware,Altium Limited,Altium Designer,23.3.1 (30)*
G04*
G04 Layer_Physical_Order=4*
G04 Layer_Color=16711680*
%FSLAX44Y44*%
%MOMM*%
G71*
G04*
G04 #@! TF.SameCoordinates,607B9DED-B9D6-4049-9DE7-3198A38A4F88*
G04*
G04*
G04 #@! TF.FilePolarity,Positive*
G04*
G01*
G75*
%ADD13C,0.1270*%
%ADD25R,1.4478X0.7620*%
%ADD74R,1.4500X1.4500*%
%ADD75C,1.4500*%
%ADD76O,1.8000X0.9000*%
%ADD77C,0.5000*%
%ADD78R,1.3700X1.3700*%
%ADD79C,1.3700*%
%ADD80C,0.4064*%
%ADD81C,2.1590*%
G04:AMPARAMS|DCode=93|XSize=0.63mm|YSize=0.5mm|CornerRadius=0.125mm|HoleSize=0mm|Usage=FLASHONLY|Rotation=0.000|XOffset=0mm|YOffset=0mm|HoleType=Round|Shape=RoundedRectangle|*
%AMROUNDEDRECTD93*
21,1,0.6300,0.2500,0,0,0.0*
21,1,0.3800,0.5000,0,0,0.0*
1,1,0.2500,0.1900,-0.1250*
1,1,0.2500,-0.1900,-0.1250*
1,1,0.2500,-0.1900,0.1250*
1,1,0.2500,0.1900,0.1250*
%
%ADD93ROUNDEDRECTD93*%
G04:AMPARAMS|DCode=94|XSize=0.63mm|YSize=0.5mm|CornerRadius=0.125mm|HoleSize=0mm|Usage=FLASHONLY|Rotation=90.000|XOffset=0mm|YOffset=0mm|HoleType=Round|Shape=RoundedRectangle|*
%AMROUNDEDRECTD94*
21,1,0.6300,0.2500,0,0,90.0*
21,1,0.3800,0.5000,0,0,90.0*
1,1,0.2500,0.1250,0.1900*
1,1,0.2500,0.1250,-0.1900*
1,1,0.2500,-0.1250,-0.1900*
1,1,0.2500,-0.1250,0.1900*
%
%ADD94ROUNDEDRECTD94*%
D13*
X254000Y243400D02*
X263185Y234215D01*
X264895D01*
X265430Y233680D01*
X254000Y243400D02*
Y244050D01*
X285750Y235077D02*
X288290Y237617D01*
X285750Y234950D02*
Y235077D01*
X288290Y237617D02*
Y243332D01*
X198120Y242570D02*
X218948D01*
X219710Y243332D01*
X203200Y247650D02*
X213106Y257556D01*
X191389Y250571D02*
X194310Y247650D01*
X203200D01*
X264430Y257020D02*
X272570D01*
X273050Y256540D01*
X263950Y257500D02*
X264430Y257020D01*
X281686Y256286D02*
Y261493D01*
X275900Y250500D02*
X281686Y256286D01*
X263950Y250500D02*
X275900D01*
X281686Y261493D02*
X284861Y264668D01*
X288290D01*
X264600Y264500D02*
X278865Y278765D01*
Y280135D01*
X263950Y264500D02*
X264600D01*
X278865Y280135D02*
X279400Y280670D01*
X191389Y268744D02*
X211316Y288671D01*
X279108D02*
X298196Y269583D01*
X211316Y288671D02*
X279108D01*
X298196Y259753D02*
Y269583D01*
X290812Y252369D02*
X298196Y259753D01*
X250500Y257500D02*
X254000Y254000D01*
X244050Y257500D02*
X250500D01*
X244050Y250500D02*
X250500D01*
X254000Y254000D01*
X147320Y256540D02*
X153670Y250190D01*
Y234950D02*
X171450Y217170D01*
X153670Y234950D02*
Y250190D01*
X233258Y266278D02*
X233680Y266700D01*
X244050Y275800D02*
X248920Y280670D01*
X214630D02*
X248920D01*
X212684Y285369D02*
X252839D01*
X321310Y234950D02*
Y287020D01*
X332740Y298450D01*
X165100Y234950D02*
X173990Y226060D01*
X271780D01*
X234950Y217170D02*
X238760Y220980D01*
X171450Y217170D02*
X234950D01*
X165100Y234950D02*
Y256540D01*
X147320D02*
Y257296D01*
X266700Y376676D01*
Y379730D01*
X311150Y224790D02*
X321310Y234950D01*
X201041Y237109D02*
X203200Y234950D01*
X191661Y237109D02*
X201041D01*
X203200Y234950D02*
X226149D01*
X229616Y238417D01*
X194310Y232410D02*
X201070D01*
X201832Y231648D01*
X227516D01*
X233680Y237812D01*
X181610Y232410D02*
X186962D01*
X191661Y237109D01*
X233680Y237812D02*
Y256540D01*
X229616Y238417D02*
Y248247D01*
X228981Y248882D02*
X229616Y248247D01*
X228981Y248882D02*
Y258486D01*
X233258Y262763D01*
Y266278D01*
X191389Y250571D02*
Y268744D01*
X194691Y257429D02*
Y267376D01*
X212684Y285369D01*
X194691Y257429D02*
X199390Y252730D01*
Y265430D02*
X214630Y280670D01*
X213106Y261493D02*
X216281Y264668D01*
X213106Y257556D02*
Y261493D01*
X216281Y264668D02*
X219710D01*
X263950Y243500D02*
X273637D01*
X282507Y252369D01*
X290812D01*
X263300Y243500D02*
X263950D01*
X252839Y285369D02*
X257538Y280670D01*
X264160D01*
X254000Y264267D02*
X256198Y266465D01*
X256515D02*
X264160Y274110D01*
Y280670D01*
X254000Y263950D02*
Y264267D01*
X256198Y266465D02*
X256515D01*
X244050Y264500D02*
Y275800D01*
D25*
X288290Y243332D02*
D03*
Y264668D02*
D03*
X219710D02*
D03*
Y243332D02*
D03*
D74*
X339090Y140970D02*
D03*
D75*
X313690D02*
D03*
D76*
X401400Y287000D02*
D03*
Y221000D02*
D03*
D77*
Y287000D02*
D03*
Y221000D02*
D03*
D78*
X317500Y379730D02*
D03*
D79*
X292100D02*
D03*
X266700D02*
D03*
X241300D02*
D03*
X215900D02*
D03*
X190500D02*
D03*
D80*
X214755Y305835D02*
D03*
X213720Y210820D02*
D03*
X299720Y311020D02*
D03*
X264160Y303160D02*
D03*
X248920D02*
D03*
X364370Y168910D02*
D03*
X146050Y246380D02*
D03*
X184150Y340360D02*
D03*
X144780Y321310D02*
D03*
X265430Y233680D02*
D03*
X285750Y234950D02*
D03*
X284480Y186690D02*
D03*
X334010Y194310D02*
D03*
X198120Y242570D02*
D03*
X273050Y256540D02*
D03*
X279400Y280670D02*
D03*
X254000Y254000D02*
D03*
X233680Y266700D02*
D03*
X248920Y280670D02*
D03*
X332740Y298450D02*
D03*
X271780Y226060D02*
D03*
X238760Y220980D02*
D03*
X165100Y256540D02*
D03*
X147320D02*
D03*
X311150Y224790D02*
D03*
X194310Y232410D02*
D03*
X181610D02*
D03*
X233680Y256540D02*
D03*
X199390Y265430D02*
D03*
Y252730D02*
D03*
X264160Y280670D02*
D03*
D81*
X254000Y101600D02*
D03*
X148590Y365760D02*
D03*
X359410D02*
D03*
D93*
X244050Y250500D02*
D03*
Y243500D02*
D03*
Y257500D02*
D03*
X263950Y243500D02*
D03*
Y257500D02*
D03*
Y250500D02*
D03*
X244050Y264500D02*
D03*
X263950D02*
D03*
D94*
X254000Y244050D02*
D03*
Y263950D02*
D03*
M02*
