G04*
G04 #@! TF.GenerationSoftware,Altium Limited,Altium Designer,23.3.1 (30)*
G04*
G04 Layer_Color=8388736*
%FSLAX44Y44*%
%MOMM*%
G71*
G04*
G04 #@! TF.SameCoordinates,607B9DED-B9D6-4049-9DE7-3198A38A4F88*
G04*
G04*
G04 #@! TF.FilePolarity,Negative*
G04*
G01*
G75*
%ADD41R,1.1732X1.2432*%
G04:AMPARAMS|DCode=42|XSize=0.4832mm|YSize=1.7632mm|CornerRadius=0.1436mm|HoleSize=0mm|Usage=FLASHONLY|Rotation=180.000|XOffset=0mm|YOffset=0mm|HoleType=Round|Shape=RoundedRectangle|*
%AMROUNDEDRECTD42*
21,1,0.4832,1.4760,0,0,180.0*
21,1,0.1960,1.7632,0,0,180.0*
1,1,0.2872,-0.0980,0.7380*
1,1,0.2872,0.0980,0.7380*
1,1,0.2872,0.0980,-0.7380*
1,1,0.2872,-0.0980,-0.7380*
%
%ADD42ROUNDEDRECTD42*%
G04:AMPARAMS|DCode=43|XSize=0.4832mm|YSize=1.7632mm|CornerRadius=0.1436mm|HoleSize=0mm|Usage=FLASHONLY|Rotation=270.000|XOffset=0mm|YOffset=0mm|HoleType=Round|Shape=RoundedRectangle|*
%AMROUNDEDRECTD43*
21,1,0.4832,1.4760,0,0,270.0*
21,1,0.1960,1.7632,0,0,270.0*
1,1,0.2872,-0.7380,-0.0980*
1,1,0.2872,-0.7380,0.0980*
1,1,0.2872,0.7380,0.0980*
1,1,0.2872,0.7380,-0.0980*
%
%ADD43ROUNDEDRECTD43*%
%ADD44R,1.2432X1.1732*%
%ADD45R,1.4632X0.7832*%
G04:AMPARAMS|DCode=46|XSize=1.5632mm|YSize=0.8032mm|CornerRadius=0.1466mm|HoleSize=0mm|Usage=FLASHONLY|Rotation=180.000|XOffset=0mm|YOffset=0mm|HoleType=Round|Shape=RoundedRectangle|*
%AMROUNDEDRECTD46*
21,1,1.5632,0.5100,0,0,180.0*
21,1,1.2700,0.8032,0,0,180.0*
1,1,0.2932,-0.6350,0.2550*
1,1,0.2932,0.6350,0.2550*
1,1,0.2932,0.6350,-0.2550*
1,1,0.2932,-0.6350,-0.2550*
%
%ADD46ROUNDEDRECTD46*%
%ADD47R,1.1732X1.1232*%
%ADD48R,1.2232X1.2432*%
%ADD49R,1.0032X1.0032*%
%ADD50R,1.6510X0.9652*%
%ADD51R,1.2432X1.2232*%
%ADD52R,1.2032X1.1032*%
%ADD53R,0.8532X1.1032*%
%ADD54R,1.4732X0.7620*%
%ADD55R,1.1032X0.8532*%
G04:AMPARAMS|DCode=56|XSize=1.1332mm|YSize=1.1332mm|CornerRadius=0.3341mm|HoleSize=0mm|Usage=FLASHONLY|Rotation=180.000|XOffset=0mm|YOffset=0mm|HoleType=Round|Shape=RoundedRectangle|*
%AMROUNDEDRECTD56*
21,1,1.1332,0.4650,0,0,180.0*
21,1,0.4650,1.1332,0,0,180.0*
1,1,0.6682,-0.2325,0.2325*
1,1,0.6682,0.2325,0.2325*
1,1,0.6682,0.2325,-0.2325*
1,1,0.6682,-0.2325,-0.2325*
%
%ADD56ROUNDEDRECTD56*%
%ADD57R,1.1332X0.9932*%
%ADD58R,0.9032X0.5032*%
%ADD59R,0.5032X0.9032*%
%ADD60R,2.1032X2.1032*%
%ADD61R,1.6032X1.8032*%
%ADD62R,1.5532X0.6032*%
%ADD63R,0.9932X1.1332*%
%ADD64R,2.1032X2.6032*%
%ADD65R,1.3032X1.2032*%
%ADD66R,1.6532X1.6532*%
%ADD67C,1.6532*%
%ADD68O,2.0032X1.1032*%
%ADD69C,0.7032*%
%ADD70R,1.5732X1.5732*%
%ADD71C,1.5732*%
%ADD72C,0.6096*%
%ADD73C,2.3622*%
D41*
X283210Y261260D02*
D03*
Y246740D02*
D03*
X113030Y236580D02*
D03*
Y251100D02*
D03*
X251460Y148230D02*
D03*
Y133710D02*
D03*
X127000Y305160D02*
D03*
Y319680D02*
D03*
X144780Y321670D02*
D03*
Y336190D02*
D03*
X274320Y133710D02*
D03*
Y148230D02*
D03*
D42*
X145220Y300880D02*
D03*
X150220D02*
D03*
X155220D02*
D03*
X160220D02*
D03*
X165220D02*
D03*
X170220D02*
D03*
X175220D02*
D03*
X180220D02*
D03*
X185220D02*
D03*
X190220D02*
D03*
X195220D02*
D03*
X200220D02*
D03*
Y217280D02*
D03*
X195220D02*
D03*
X190220D02*
D03*
X185220D02*
D03*
X180220D02*
D03*
X175220D02*
D03*
X170220D02*
D03*
X165220D02*
D03*
X160220D02*
D03*
X155220D02*
D03*
X150220D02*
D03*
X145220D02*
D03*
D43*
X214520Y286580D02*
D03*
Y281580D02*
D03*
Y276580D02*
D03*
Y271580D02*
D03*
Y266580D02*
D03*
Y261580D02*
D03*
Y256580D02*
D03*
Y251580D02*
D03*
Y246580D02*
D03*
Y241580D02*
D03*
Y236580D02*
D03*
Y231580D02*
D03*
X130920D02*
D03*
Y236580D02*
D03*
Y241580D02*
D03*
Y246580D02*
D03*
Y251580D02*
D03*
Y256580D02*
D03*
Y261580D02*
D03*
Y266580D02*
D03*
Y271580D02*
D03*
Y276580D02*
D03*
Y281580D02*
D03*
Y286580D02*
D03*
D44*
X214990Y306070D02*
D03*
X229510D02*
D03*
X213720Y210820D02*
D03*
X228240D02*
D03*
D45*
X344490Y309270D02*
D03*
Y318770D02*
D03*
Y328270D02*
D03*
X320990D02*
D03*
Y309270D02*
D03*
D46*
X344490Y240690D02*
D03*
Y250190D02*
D03*
Y259690D02*
D03*
X320990D02*
D03*
Y250190D02*
D03*
Y240690D02*
D03*
D47*
X299720Y326520D02*
D03*
Y311020D02*
D03*
X365760Y326520D02*
D03*
Y311020D02*
D03*
X279400Y290700D02*
D03*
Y306200D02*
D03*
D48*
X162560Y336280D02*
D03*
Y321580D02*
D03*
D49*
X384170Y200660D02*
D03*
X367670D02*
D03*
D50*
X184150Y340868D02*
D03*
Y319532D02*
D03*
D51*
X368369Y182832D02*
D03*
X383069D02*
D03*
D52*
X300100Y166190D02*
D03*
Y207190D02*
D03*
X284100D02*
D03*
Y166190D02*
D03*
X262861Y166270D02*
D03*
Y207270D02*
D03*
X246861D02*
D03*
Y166270D02*
D03*
D53*
X352690Y223520D02*
D03*
X338190D02*
D03*
D54*
X322326Y203708D02*
D03*
Y194310D02*
D03*
Y184912D02*
D03*
X348234D02*
D03*
Y203708D02*
D03*
D55*
X264160Y288660D02*
D03*
Y303160D02*
D03*
X248920Y288660D02*
D03*
Y303160D02*
D03*
D56*
X364370Y168910D02*
D03*
X349370D02*
D03*
X318890D02*
D03*
X333890D02*
D03*
D57*
X290830Y149170D02*
D03*
Y132770D02*
D03*
D58*
X244500Y261500D02*
D03*
Y256500D02*
D03*
Y251500D02*
D03*
Y246500D02*
D03*
X263500D02*
D03*
Y251500D02*
D03*
Y256500D02*
D03*
Y261500D02*
D03*
D59*
X251500Y244500D02*
D03*
X256500D02*
D03*
Y263500D02*
D03*
X251500D02*
D03*
D60*
X401400Y266000D02*
D03*
Y242000D02*
D03*
D61*
X376900Y286000D02*
D03*
Y222000D02*
D03*
D62*
X374650Y267000D02*
D03*
Y260500D02*
D03*
Y254000D02*
D03*
Y247500D02*
D03*
Y241000D02*
D03*
D63*
X324540Y275590D02*
D03*
X340940D02*
D03*
D64*
X169270Y153670D02*
D03*
X214270D02*
D03*
D65*
X182000Y185420D02*
D03*
X199000D02*
D03*
X159630D02*
D03*
X142630D02*
D03*
D66*
X339090Y140970D02*
D03*
D67*
X313690D02*
D03*
D68*
X401400Y287000D02*
D03*
Y221000D02*
D03*
D69*
Y287000D02*
D03*
Y221000D02*
D03*
D70*
X317500Y379730D02*
D03*
D71*
X292100D02*
D03*
X266700D02*
D03*
X241300D02*
D03*
X215900D02*
D03*
X190500D02*
D03*
D72*
X214755Y305835D02*
D03*
X213720Y210820D02*
D03*
X299720Y311020D02*
D03*
X264160Y303160D02*
D03*
X248920D02*
D03*
X364370Y168910D02*
D03*
X146050Y246380D02*
D03*
X184150Y340360D02*
D03*
X144780Y321310D02*
D03*
X265430Y233680D02*
D03*
X285750Y234950D02*
D03*
X284480Y186690D02*
D03*
X334010Y194310D02*
D03*
X198120Y242570D02*
D03*
X273050Y256540D02*
D03*
X279400Y280670D02*
D03*
X254000Y254000D02*
D03*
X233680Y266700D02*
D03*
X248920Y280670D02*
D03*
X332740Y298450D02*
D03*
X271780Y226060D02*
D03*
X238760Y220980D02*
D03*
X165100Y256540D02*
D03*
X147320D02*
D03*
X311150Y224790D02*
D03*
X194310Y232410D02*
D03*
X181610D02*
D03*
X233680Y256540D02*
D03*
X199390Y265430D02*
D03*
Y252730D02*
D03*
X264160Y280670D02*
D03*
D73*
X254000Y101600D02*
D03*
X148590Y365760D02*
D03*
X359410D02*
D03*
M02*
