G04*
G04 #@! TF.GenerationSoftware,Altium Limited,Altium Designer,23.3.1 (30)*
G04*
G04 Layer_Color=16711935*
%FSLAX44Y44*%
%MOMM*%
G71*
G04*
G04 #@! TF.SameCoordinates,607B9DED-B9D6-4049-9DE7-3198A38A4F88*
G04*
G04*
G04 #@! TF.FilePolarity,Negative*
G04*
G01*
G75*
%ADD50R,1.6510X0.9652*%
%ADD66R,1.6532X1.6532*%
%ADD67C,1.6532*%
%ADD68O,2.0032X1.1032*%
%ADD69C,0.7032*%
%ADD70R,1.5732X1.5732*%
%ADD71C,1.5732*%
%ADD72C,0.6096*%
%ADD73C,2.3622*%
G04:AMPARAMS|DCode=95|XSize=0.8332mm|YSize=0.7032mm|CornerRadius=0.2266mm|HoleSize=0mm|Usage=FLASHONLY|Rotation=0.000|XOffset=0mm|YOffset=0mm|HoleType=Round|Shape=RoundedRectangle|*
%AMROUNDEDRECTD95*
21,1,0.8332,0.2500,0,0,0.0*
21,1,0.3800,0.7032,0,0,0.0*
1,1,0.4532,0.1900,-0.1250*
1,1,0.4532,-0.1900,-0.1250*
1,1,0.4532,-0.1900,0.1250*
1,1,0.4532,0.1900,0.1250*
%
%ADD95ROUNDEDRECTD95*%
G04:AMPARAMS|DCode=96|XSize=0.8332mm|YSize=0.7032mm|CornerRadius=0.2266mm|HoleSize=0mm|Usage=FLASHONLY|Rotation=90.000|XOffset=0mm|YOffset=0mm|HoleType=Round|Shape=RoundedRectangle|*
%AMROUNDEDRECTD96*
21,1,0.8332,0.2500,0,0,90.0*
21,1,0.3800,0.7032,0,0,90.0*
1,1,0.4532,0.1250,0.1900*
1,1,0.4532,0.1250,-0.1900*
1,1,0.4532,-0.1250,-0.1900*
1,1,0.4532,-0.1250,0.1900*
%
%ADD96ROUNDEDRECTD96*%
D50*
X288290Y243332D02*
D03*
Y264668D02*
D03*
X219710D02*
D03*
Y243332D02*
D03*
D66*
X339090Y140970D02*
D03*
D67*
X313690D02*
D03*
D68*
X401400Y287000D02*
D03*
Y221000D02*
D03*
D69*
Y287000D02*
D03*
Y221000D02*
D03*
D70*
X317500Y379730D02*
D03*
D71*
X292100D02*
D03*
X266700D02*
D03*
X241300D02*
D03*
X215900D02*
D03*
X190500D02*
D03*
D72*
X214755Y305835D02*
D03*
X213720Y210820D02*
D03*
X299720Y311020D02*
D03*
X264160Y303160D02*
D03*
X248920D02*
D03*
X364370Y168910D02*
D03*
X146050Y246380D02*
D03*
X184150Y340360D02*
D03*
X144780Y321310D02*
D03*
X265430Y233680D02*
D03*
X285750Y234950D02*
D03*
X284480Y186690D02*
D03*
X334010Y194310D02*
D03*
X198120Y242570D02*
D03*
X273050Y256540D02*
D03*
X279400Y280670D02*
D03*
X254000Y254000D02*
D03*
X233680Y266700D02*
D03*
X248920Y280670D02*
D03*
X332740Y298450D02*
D03*
X271780Y226060D02*
D03*
X238760Y220980D02*
D03*
X165100Y256540D02*
D03*
X147320D02*
D03*
X311150Y224790D02*
D03*
X194310Y232410D02*
D03*
X181610D02*
D03*
X233680Y256540D02*
D03*
X199390Y265430D02*
D03*
Y252730D02*
D03*
X264160Y280670D02*
D03*
D73*
X254000Y101600D02*
D03*
X148590Y365760D02*
D03*
X359410D02*
D03*
D95*
X244050Y250500D02*
D03*
Y243500D02*
D03*
Y257500D02*
D03*
X263950Y243500D02*
D03*
Y257500D02*
D03*
Y250500D02*
D03*
X244050Y264500D02*
D03*
X263950D02*
D03*
D96*
X254000Y244050D02*
D03*
Y263950D02*
D03*
M02*
