G04*
G04 #@! TF.GenerationSoftware,Altium Limited,Altium Designer,23.3.1 (30)*
G04*
G04 Layer_Color=65535*
%FSLAX44Y44*%
%MOMM*%
G71*
G04*
G04 #@! TF.SameCoordinates,607B9DED-B9D6-4049-9DE7-3198A38A4F88*
G04*
G04*
G04 #@! TF.FilePolarity,Positive*
G04*
G01*
G75*
%ADD10C,0.2000*%
%ADD11C,0.0000*%
%ADD12C,0.1000*%
%ADD13C,0.1270*%
%ADD14C,0.2540*%
%ADD15C,0.1524*%
G36*
X285283Y332018D02*
X214428D01*
Y357418D01*
X285283D01*
Y332018D01*
D02*
G37*
%LPC*%
G36*
X273237Y347856D02*
X273050D01*
X272730Y347838D01*
X272429Y347781D01*
X272166Y347706D01*
X271903Y347593D01*
X271659Y347481D01*
X271452Y347349D01*
X271245Y347199D01*
X271076Y347048D01*
X270926Y346879D01*
X270794Y346748D01*
X270681Y346597D01*
X270587Y346484D01*
X270512Y346372D01*
X270456Y346296D01*
X270437Y346240D01*
X270418Y346221D01*
Y347687D01*
X268802D01*
Y338553D01*
X270418D01*
Y343778D01*
X270437Y344173D01*
X270512Y344548D01*
X270625Y344868D01*
X270738Y345150D01*
X270850Y345375D01*
X270963Y345545D01*
X271038Y345639D01*
X271057Y345676D01*
X271189Y345826D01*
X271301Y345939D01*
X271565Y346146D01*
X271809Y346296D01*
X272053Y346390D01*
X272260Y346447D01*
X272410Y346466D01*
X272523Y346484D01*
X272561D01*
X272768Y346466D01*
X272955Y346428D01*
X273144Y346372D01*
X273294Y346296D01*
X273444Y346221D01*
X273538Y346165D01*
X273613Y346127D01*
X273632Y346109D01*
X274309Y347687D01*
X274027Y347744D01*
X273764Y347781D01*
X273538Y347819D01*
X273369Y347838D01*
X273237Y347856D01*
D02*
G37*
G36*
X262505D02*
X262317D01*
X262035Y347838D01*
X261753Y347819D01*
X261490Y347762D01*
X261246Y347725D01*
X261039Y347668D01*
X260889Y347612D01*
X260776Y347593D01*
X260757Y347575D01*
X260738D01*
X260456Y347481D01*
X260193Y347368D01*
X259986Y347255D01*
X259798Y347161D01*
X259667Y347067D01*
X259554Y346992D01*
X259498Y346954D01*
X259479Y346936D01*
X260155Y345582D01*
X260325Y345733D01*
X260494Y345864D01*
X260870Y346052D01*
X261264Y346203D01*
X261640Y346315D01*
X261979Y346372D01*
X262129Y346390D01*
X262261D01*
X262355Y346409D01*
X262505D01*
X262862Y346390D01*
X263163Y346315D01*
X263445Y346203D01*
X263670Y346071D01*
X263858Y345902D01*
X264027Y345714D01*
X264159Y345507D01*
X264272Y345300D01*
X264347Y345093D01*
X264403Y344887D01*
X264460Y344699D01*
X264478Y344530D01*
X264497Y344398D01*
X264516Y344285D01*
Y344210D01*
Y344191D01*
X264272Y344267D01*
X264046Y344323D01*
X263858Y344360D01*
X263670Y344398D01*
X263539D01*
X263426Y344417D01*
X263332D01*
X262994Y344398D01*
X262655Y344379D01*
X262054Y344267D01*
X261772Y344191D01*
X261528Y344116D01*
X261283Y344022D01*
X261076Y343928D01*
X260889Y343834D01*
X260719Y343740D01*
X260569Y343665D01*
X260456Y343590D01*
X260362Y343533D01*
X260287Y343477D01*
X260249Y343458D01*
X260231Y343439D01*
X260024Y343251D01*
X259836Y343064D01*
X259667Y342876D01*
X259516Y342669D01*
X259404Y342462D01*
X259310Y342274D01*
X259159Y341898D01*
X259065Y341579D01*
X259046Y341447D01*
X259028Y341315D01*
X259009Y341222D01*
Y341090D01*
X259046Y340676D01*
X259140Y340300D01*
X259253Y339981D01*
X259404Y339699D01*
X259554Y339473D01*
X259667Y339304D01*
X259761Y339192D01*
X259798Y339154D01*
X260099Y338891D01*
X260419Y338703D01*
X260738Y338571D01*
X261020Y338477D01*
X261283Y338421D01*
X261471Y338402D01*
X261546Y338383D01*
X261659D01*
X262035Y338402D01*
X262373Y338440D01*
X262693Y338496D01*
X262994Y338571D01*
X263257Y338665D01*
X263501Y338778D01*
X263727Y338872D01*
X263933Y339004D01*
X264103Y339116D01*
X264253Y339210D01*
X264384Y339323D01*
X264478Y339417D01*
X264573Y339492D01*
X264629Y339549D01*
X264648Y339586D01*
X264667Y339605D01*
X264760Y339380D01*
X264854Y339173D01*
X264986Y339022D01*
X265099Y338891D01*
X265193Y338797D01*
X265287Y338722D01*
X265343Y338684D01*
X265362Y338665D01*
X265569Y338571D01*
X265794Y338496D01*
X266039Y338459D01*
X266283Y338421D01*
X266509Y338402D01*
X266678Y338383D01*
X266847D01*
Y339192D01*
X266715Y339267D01*
X266602Y339380D01*
X266433Y339605D01*
X266302Y339868D01*
X266227Y340131D01*
X266170Y340395D01*
X266151Y340601D01*
X266133Y340676D01*
Y340733D01*
Y340770D01*
Y340789D01*
Y344060D01*
X266114Y344417D01*
X266095Y344755D01*
X266057Y345056D01*
X265982Y345338D01*
X265926Y345601D01*
X265851Y345845D01*
X265757Y346052D01*
X265681Y346240D01*
X265588Y346409D01*
X265512Y346541D01*
X265418Y346672D01*
X265362Y346766D01*
X265306Y346842D01*
X265249Y346898D01*
X265230Y346917D01*
X265212Y346936D01*
X265024Y347105D01*
X264836Y347236D01*
X264610Y347368D01*
X264384Y347462D01*
X263896Y347631D01*
X263426Y347744D01*
X263200Y347781D01*
X262994Y347800D01*
X262806Y347838D01*
X262637D01*
X262505Y347856D01*
D02*
G37*
G36*
X228898D02*
X228710D01*
X228428Y347838D01*
X228146Y347819D01*
X227883Y347762D01*
X227638Y347725D01*
X227432Y347668D01*
X227281Y347612D01*
X227169Y347593D01*
X227150Y347575D01*
X227131D01*
X226849Y347481D01*
X226586Y347368D01*
X226379Y347255D01*
X226191Y347161D01*
X226059Y347067D01*
X225947Y346992D01*
X225890Y346954D01*
X225872Y346936D01*
X226548Y345582D01*
X226717Y345733D01*
X226887Y345864D01*
X227262Y346052D01*
X227657Y346203D01*
X228033Y346315D01*
X228371Y346372D01*
X228522Y346390D01*
X228653D01*
X228747Y346409D01*
X228898D01*
X229255Y346390D01*
X229555Y346315D01*
X229837Y346203D01*
X230063Y346071D01*
X230251Y345902D01*
X230420Y345714D01*
X230552Y345507D01*
X230665Y345300D01*
X230740Y345093D01*
X230796Y344887D01*
X230853Y344699D01*
X230871Y344530D01*
X230890Y344398D01*
X230909Y344285D01*
Y344210D01*
Y344191D01*
X230665Y344267D01*
X230439Y344323D01*
X230251Y344360D01*
X230063Y344398D01*
X229932D01*
X229819Y344417D01*
X229725D01*
X229386Y344398D01*
X229048Y344379D01*
X228447Y344267D01*
X228165Y344191D01*
X227920Y344116D01*
X227676Y344022D01*
X227469Y343928D01*
X227281Y343834D01*
X227112Y343740D01*
X226962Y343665D01*
X226849Y343590D01*
X226755Y343533D01*
X226680Y343477D01*
X226642Y343458D01*
X226623Y343439D01*
X226417Y343251D01*
X226229Y343064D01*
X226059Y342876D01*
X225909Y342669D01*
X225796Y342462D01*
X225702Y342274D01*
X225552Y341898D01*
X225458Y341579D01*
X225439Y341447D01*
X225420Y341315D01*
X225402Y341222D01*
Y341090D01*
X225439Y340676D01*
X225533Y340300D01*
X225646Y339981D01*
X225796Y339699D01*
X225947Y339473D01*
X226059Y339304D01*
X226154Y339192D01*
X226191Y339154D01*
X226492Y338891D01*
X226811Y338703D01*
X227131Y338571D01*
X227413Y338477D01*
X227676Y338421D01*
X227864Y338402D01*
X227939Y338383D01*
X228052D01*
X228428Y338402D01*
X228766Y338440D01*
X229086Y338496D01*
X229386Y338571D01*
X229650Y338665D01*
X229894Y338778D01*
X230119Y338872D01*
X230326Y339004D01*
X230495Y339116D01*
X230646Y339210D01*
X230777Y339323D01*
X230871Y339417D01*
X230965Y339492D01*
X231022Y339549D01*
X231040Y339586D01*
X231059Y339605D01*
X231153Y339380D01*
X231247Y339173D01*
X231379Y339022D01*
X231492Y338891D01*
X231586Y338797D01*
X231679Y338722D01*
X231736Y338684D01*
X231755Y338665D01*
X231961Y338571D01*
X232187Y338496D01*
X232431Y338459D01*
X232676Y338421D01*
X232901Y338402D01*
X233070Y338383D01*
X233240D01*
Y339192D01*
X233108Y339267D01*
X232995Y339380D01*
X232826Y339605D01*
X232694Y339868D01*
X232619Y340131D01*
X232563Y340395D01*
X232544Y340601D01*
X232525Y340676D01*
Y340733D01*
Y340770D01*
Y340789D01*
Y344060D01*
X232507Y344417D01*
X232488Y344755D01*
X232450Y345056D01*
X232375Y345338D01*
X232319Y345601D01*
X232243Y345845D01*
X232149Y346052D01*
X232074Y346240D01*
X231980Y346409D01*
X231905Y346541D01*
X231811Y346672D01*
X231755Y346766D01*
X231698Y346842D01*
X231642Y346898D01*
X231623Y346917D01*
X231604Y346936D01*
X231416Y347105D01*
X231228Y347236D01*
X231003Y347368D01*
X230777Y347462D01*
X230289Y347631D01*
X229819Y347744D01*
X229593Y347781D01*
X229386Y347800D01*
X229198Y347838D01*
X229029D01*
X228898Y347856D01*
D02*
G37*
G36*
X248709Y351052D02*
X246942D01*
X244367Y342349D01*
X241660Y351052D01*
X241059D01*
X238314Y342331D01*
X235796Y351052D01*
X234029D01*
X237976Y338383D01*
X238521D01*
X241284Y346992D01*
X244273Y338383D01*
X244818D01*
X248709Y351052D01*
D02*
G37*
G36*
X253821Y347856D02*
X253633D01*
X253333Y347838D01*
X253032Y347800D01*
X252750Y347744D01*
X252468Y347668D01*
X251979Y347462D01*
X251754Y347368D01*
X251566Y347255D01*
X251378Y347123D01*
X251208Y347029D01*
X251077Y346917D01*
X250964Y346823D01*
X250870Y346748D01*
X250795Y346691D01*
X250757Y346654D01*
X250739Y346635D01*
X250494Y346372D01*
X250287Y346090D01*
X250100Y345789D01*
X249949Y345488D01*
X249818Y345187D01*
X249705Y344887D01*
X249611Y344586D01*
X249536Y344304D01*
X249479Y344041D01*
X249442Y343797D01*
X249404Y343571D01*
X249385Y343383D01*
Y343233D01*
X249366Y343101D01*
Y343007D01*
X249385Y342612D01*
X249423Y342237D01*
X249498Y341879D01*
X249573Y341541D01*
X249667Y341240D01*
X249780Y340958D01*
X249912Y340695D01*
X250043Y340470D01*
X250156Y340244D01*
X250287Y340075D01*
X250400Y339906D01*
X250494Y339774D01*
X250569Y339680D01*
X250645Y339605D01*
X250682Y339567D01*
X250701Y339549D01*
X250927Y339342D01*
X251171Y339173D01*
X251415Y339004D01*
X251660Y338872D01*
X251904Y338759D01*
X252148Y338665D01*
X252618Y338534D01*
X252825Y338477D01*
X253013Y338440D01*
X253182Y338421D01*
X253333Y338402D01*
X253445Y338383D01*
X253614D01*
X254047Y338402D01*
X254460Y338440D01*
X254836Y338496D01*
X255156Y338571D01*
X255419Y338628D01*
X255607Y338684D01*
X255682Y338703D01*
X255738Y338722D01*
X255757Y338740D01*
X255776D01*
X256058Y338853D01*
X256283Y338947D01*
X256490Y339060D01*
X256659Y339173D01*
X256772Y339267D01*
X256866Y339342D01*
X256922Y339380D01*
X256941Y339398D01*
X256246Y340564D01*
X256077Y340413D01*
X255889Y340300D01*
X255494Y340094D01*
X255118Y339962D01*
X254742Y339849D01*
X254423Y339793D01*
X254291Y339774D01*
X254160D01*
X254065Y339755D01*
X253934D01*
X253502Y339793D01*
X253107Y339868D01*
X252769Y339981D01*
X252487Y340131D01*
X252242Y340263D01*
X252073Y340376D01*
X251979Y340451D01*
X251942Y340489D01*
X251791Y340658D01*
X251660Y340846D01*
X251434Y341240D01*
X251284Y341654D01*
X251190Y342048D01*
X251115Y342406D01*
X251096Y342575D01*
Y342706D01*
X251077Y342819D01*
Y342894D01*
Y342951D01*
Y342970D01*
X257656D01*
X257731Y343308D01*
X257750Y343477D01*
X257768Y343627D01*
X257787Y343759D01*
Y343947D01*
X257768Y344267D01*
X257750Y344567D01*
X257693Y344849D01*
X257618Y345131D01*
X257543Y345375D01*
X257449Y345601D01*
X257336Y345808D01*
X257242Y345996D01*
X257148Y346165D01*
X257035Y346315D01*
X256941Y346447D01*
X256866Y346560D01*
X256791Y346635D01*
X256753Y346691D01*
X256716Y346729D01*
X256697Y346748D01*
X256471Y346936D01*
X256246Y347123D01*
X256001Y347255D01*
X255757Y347387D01*
X255494Y347499D01*
X255250Y347593D01*
X254742Y347725D01*
X254517Y347762D01*
X254310Y347800D01*
X254122Y347819D01*
X253953Y347838D01*
X253821Y347856D01*
D02*
G37*
%LPD*%
G36*
X263727Y343195D02*
X264084Y343139D01*
X264253Y343101D01*
X264384Y343064D01*
X264478Y343045D01*
X264516D01*
Y340827D01*
X264328Y340620D01*
X264140Y340451D01*
X263952Y340282D01*
X263764Y340150D01*
X263576Y340037D01*
X263407Y339943D01*
X263050Y339812D01*
X262768Y339718D01*
X262637Y339699D01*
X262524Y339680D01*
X262430Y339661D01*
X262317D01*
X262016Y339680D01*
X261753Y339718D01*
X261528Y339793D01*
X261340Y339887D01*
X261170Y339981D01*
X261039Y340113D01*
X260926Y340244D01*
X260832Y340376D01*
X260776Y340507D01*
X260719Y340620D01*
X260644Y340846D01*
Y340940D01*
X260625Y341015D01*
Y341052D01*
Y341071D01*
X260663Y341391D01*
X260738Y341673D01*
X260870Y341936D01*
X261020Y342142D01*
X261152Y342331D01*
X261283Y342462D01*
X261358Y342537D01*
X261396Y342575D01*
X261716Y342782D01*
X262054Y342951D01*
X262392Y343064D01*
X262712Y343139D01*
X262994Y343176D01*
X263106Y343195D01*
X263219Y343214D01*
X263557D01*
X263727Y343195D01*
D02*
G37*
G36*
X230119D02*
X230477Y343139D01*
X230646Y343101D01*
X230777Y343064D01*
X230871Y343045D01*
X230909D01*
Y340827D01*
X230721Y340620D01*
X230533Y340451D01*
X230345Y340282D01*
X230157Y340150D01*
X229969Y340037D01*
X229800Y339943D01*
X229443Y339812D01*
X229161Y339718D01*
X229029Y339699D01*
X228916Y339680D01*
X228822Y339661D01*
X228710D01*
X228409Y339680D01*
X228146Y339718D01*
X227920Y339793D01*
X227732Y339887D01*
X227563Y339981D01*
X227432Y340113D01*
X227319Y340244D01*
X227225Y340376D01*
X227169Y340507D01*
X227112Y340620D01*
X227037Y340846D01*
Y340940D01*
X227018Y341015D01*
Y341052D01*
Y341071D01*
X227056Y341391D01*
X227131Y341673D01*
X227262Y341936D01*
X227413Y342142D01*
X227544Y342331D01*
X227676Y342462D01*
X227751Y342537D01*
X227789Y342575D01*
X228108Y342782D01*
X228447Y342951D01*
X228785Y343064D01*
X229104Y343139D01*
X229386Y343176D01*
X229499Y343195D01*
X229612Y343214D01*
X229950D01*
X230119Y343195D01*
D02*
G37*
G36*
X254122Y346447D02*
X254498Y346372D01*
X254799Y346259D01*
X255062Y346127D01*
X255268Y345996D01*
X255419Y345883D01*
X255513Y345808D01*
X255550Y345770D01*
X255757Y345507D01*
X255907Y345244D01*
X256020Y344962D01*
X256096Y344718D01*
X256133Y344492D01*
X256171Y344323D01*
Y344191D01*
Y344173D01*
Y344154D01*
X251115D01*
X251171Y344511D01*
X251265Y344830D01*
X251397Y345093D01*
X251547Y345338D01*
X251678Y345526D01*
X251791Y345676D01*
X251866Y345751D01*
X251904Y345789D01*
X252186Y346015D01*
X252487Y346184D01*
X252806Y346315D01*
X253088Y346390D01*
X253333Y346447D01*
X253539Y346466D01*
X253614Y346484D01*
X253708D01*
X254122Y346447D01*
D02*
G37*
D10*
X117720Y291080D02*
G03*
X117720Y291080I-1000J0D01*
G01*
X359290Y140970D02*
G03*
X359290Y140970I-1000J0D01*
G01*
X359240Y240690D02*
G03*
X359240Y240690I-1000J0D01*
G01*
X394570Y200660D02*
G03*
X394570Y200660I-1000J0D01*
G01*
X303100Y151690D02*
G03*
X303100Y151690I-1000J0D01*
G01*
X265861Y151770D02*
G03*
X265861Y151770I-1000J0D01*
G01*
X367400Y234000D02*
G03*
X367400Y234000I-1000J0D01*
G01*
X337700Y379730D02*
G03*
X337700Y379730I-1000J0D01*
G01*
D11*
X349640Y303610D02*
G03*
X349640Y303610I-1500J0D01*
G01*
X332232Y209804D02*
G03*
X338328Y209804I3048J0D01*
G01*
D12*
X239500Y267000D02*
G03*
X239500Y267000I-500J0D01*
G01*
D13*
X136720Y223080D02*
Y228380D01*
Y289780D02*
Y295080D01*
X203420D02*
X208720D01*
Y223080D02*
Y228380D01*
X136720Y223080D02*
X142020D01*
X203420D02*
X208720D01*
Y289780D02*
Y295080D01*
X136720D02*
X142020D01*
X324610Y235560D02*
X340870D01*
X324610Y264820D02*
X340870D01*
X374820Y196160D02*
X377020D01*
X374820Y205160D02*
X377020D01*
X278100Y173825D02*
Y199555D01*
X306100Y173825D02*
Y199555D01*
X240861Y173905D02*
Y199635D01*
X268861Y173905D02*
Y199635D01*
X344640Y219520D02*
X346240D01*
X344640Y227520D02*
X346240D01*
X260160Y295110D02*
Y296710D01*
X268160Y295110D02*
Y296710D01*
X244920Y295110D02*
Y296710D01*
X252920Y295110D02*
Y296710D01*
X295330Y139870D02*
Y142070D01*
X286330Y139870D02*
Y142070D01*
X412400Y292000D02*
X415400D01*
X412400Y216000D02*
X415400D01*
X386400Y292000D02*
X390400D01*
X386400Y216000D02*
X390400D01*
X415900D02*
Y292000D01*
X331640Y280090D02*
X333840D01*
X331640Y271090D02*
X333840D01*
X161770Y171170D02*
X221770D01*
X161770Y136170D02*
X221770D01*
X189000Y189920D02*
X192000D01*
X189000Y180920D02*
X192000D01*
X149630D02*
X152630D01*
X149630Y189920D02*
X152630D01*
D14*
X214295Y332018D02*
Y357418D01*
X285415D01*
Y332018D02*
Y357418D01*
X214295Y332018D02*
X285415D01*
X303535Y128269D02*
Y120651D01*
X307343D01*
X308613Y121921D01*
Y123190D01*
X307343Y124460D01*
X303535D01*
X307343D01*
X308613Y125730D01*
Y126999D01*
X307343Y128269D01*
X303535D01*
X311152Y120651D02*
Y125730D01*
X313691Y128269D01*
X316230Y125730D01*
Y120651D01*
Y124460D01*
X311152D01*
X318770Y128269D02*
X323848D01*
X321309D01*
Y120651D01*
X326387Y128269D02*
X331465D01*
X328926D01*
Y120651D01*
X300992Y275589D02*
Y269241D01*
X302262Y267971D01*
X304801D01*
X306070Y269241D01*
Y275589D01*
X312418Y267971D02*
Y275589D01*
X308610Y271780D01*
X313688D01*
X326392Y347979D02*
Y341631D01*
X327662Y340361D01*
X330201D01*
X331470Y341631D01*
Y347979D01*
X339088Y340361D02*
X334010D01*
X339088Y345440D01*
Y346709D01*
X337818Y347979D01*
X335279D01*
X334010Y346709D01*
X245113Y215901D02*
Y223519D01*
X248922D01*
X250192Y222249D01*
Y219710D01*
X248922Y218440D01*
X245113D01*
X247652D02*
X250192Y215901D01*
X257809Y222249D02*
X256540Y223519D01*
X254000D01*
X252731Y222249D01*
Y220980D01*
X254000Y219710D01*
X256540D01*
X257809Y218440D01*
Y217171D01*
X256540Y215901D01*
X254000D01*
X252731Y217171D01*
X260348Y223519D02*
X265427D01*
X262888D01*
Y215901D01*
X316232Y222251D02*
Y229869D01*
X320041D01*
X321310Y228599D01*
Y226060D01*
X320041Y224790D01*
X316232D01*
X318771D02*
X321310Y222251D01*
X323850Y228599D02*
X325119Y229869D01*
X327658D01*
X328928Y228599D01*
Y227330D01*
X327658Y226060D01*
X328928Y224790D01*
Y223521D01*
X327658Y222251D01*
X325119D01*
X323850Y223521D01*
Y224790D01*
X325119Y226060D01*
X323850Y227330D01*
Y228599D01*
X325119Y226060D02*
X327658D01*
X156212Y346711D02*
Y354329D01*
X160021D01*
X161290Y353059D01*
Y350520D01*
X160021Y349250D01*
X156212D01*
X158751D02*
X161290Y346711D01*
X163830Y354329D02*
X168908D01*
Y353059D01*
X163830Y347981D01*
Y346711D01*
X372112Y167641D02*
Y175259D01*
X375921D01*
X377190Y173989D01*
Y171450D01*
X375921Y170180D01*
X372112D01*
X374651D02*
X377190Y167641D01*
X384808Y175259D02*
X382269Y173989D01*
X379730Y171450D01*
Y168911D01*
X380999Y167641D01*
X383538D01*
X384808Y168911D01*
Y170180D01*
X383538Y171450D01*
X379730D01*
X252729Y312422D02*
X245111D01*
Y316231D01*
X246381Y317500D01*
X248920D01*
X250189Y316231D01*
Y312422D01*
Y314961D02*
X252729Y317500D01*
Y325118D02*
Y320040D01*
X247650Y325118D01*
X246381D01*
X245111Y323848D01*
Y321309D01*
X246381Y320040D01*
X267969Y312422D02*
X260351D01*
Y316230D01*
X261621Y317500D01*
X264160D01*
X265430Y316230D01*
Y312422D01*
Y314961D02*
X267969Y317500D01*
Y320039D02*
Y322578D01*
Y321309D01*
X260351D01*
X261621Y320039D01*
X316230Y218439D02*
X313691D01*
X314961D01*
Y212091D01*
X313691Y210821D01*
X312422D01*
X311152Y212091D01*
X318770Y217169D02*
X320039Y218439D01*
X322578D01*
X323848Y217169D01*
Y215900D01*
X322578Y214630D01*
X321309D01*
X322578D01*
X323848Y213360D01*
Y212091D01*
X322578Y210821D01*
X320039D01*
X318770Y212091D01*
X353696Y160019D02*
X352426Y161289D01*
X349887D01*
X348618Y160019D01*
Y154941D01*
X349887Y153671D01*
X352426D01*
X353696Y154941D01*
X356235Y153671D02*
X358774D01*
X357505D01*
Y161289D01*
X356235Y160019D01*
X362583Y153671D02*
X365122D01*
X363853D01*
Y161289D01*
X362583Y160019D01*
X321946D02*
X320677Y161289D01*
X318138D01*
X316868Y160019D01*
Y154941D01*
X318138Y153671D01*
X320677D01*
X321946Y154941D01*
X324486Y153671D02*
X327025D01*
X325755D01*
Y161289D01*
X324486Y160019D01*
X330834D02*
X332103Y161289D01*
X334642D01*
X335912Y160019D01*
Y154941D01*
X334642Y153671D01*
X332103D01*
X330834Y154941D01*
Y160019D01*
X364490Y342899D02*
X363221Y344169D01*
X360682D01*
X359412Y342899D01*
Y337821D01*
X360682Y336551D01*
X363221D01*
X364490Y337821D01*
X367030D02*
X368299Y336551D01*
X370838D01*
X372108Y337821D01*
Y342899D01*
X370838Y344169D01*
X368299D01*
X367030Y342899D01*
Y341630D01*
X368299Y340360D01*
X372108D01*
X298450Y341629D02*
X297181Y342899D01*
X294642D01*
X293372Y341629D01*
Y336551D01*
X294642Y335281D01*
X297181D01*
X298450Y336551D01*
X300990Y341629D02*
X302259Y342899D01*
X304798D01*
X306068Y341629D01*
Y340360D01*
X304798Y339090D01*
X306068Y337820D01*
Y336551D01*
X304798Y335281D01*
X302259D01*
X300990Y336551D01*
Y337820D01*
X302259Y339090D01*
X300990Y340360D01*
Y341629D01*
X302259Y339090D02*
X304798D01*
X220980Y321309D02*
X219711Y322579D01*
X217172D01*
X215902Y321309D01*
Y316231D01*
X217172Y314961D01*
X219711D01*
X220980Y316231D01*
X223520Y322579D02*
X228598D01*
Y321309D01*
X223520Y316231D01*
Y314961D01*
X111761Y304800D02*
X110491Y303531D01*
Y300992D01*
X111761Y299722D01*
X116839D01*
X118109Y300992D01*
Y303531D01*
X116839Y304800D01*
X110491Y312418D02*
X111761Y309879D01*
X114300Y307340D01*
X116839D01*
X118109Y308609D01*
Y311148D01*
X116839Y312418D01*
X115569D01*
X114300Y311148D01*
Y307340D01*
X219710Y198119D02*
X218441Y199389D01*
X215902D01*
X214632Y198119D01*
Y193041D01*
X215902Y191771D01*
X218441D01*
X219710Y193041D01*
X227328Y199389D02*
X222250D01*
Y195580D01*
X224789Y196850D01*
X226058D01*
X227328Y195580D01*
Y193041D01*
X226058Y191771D01*
X223519D01*
X222250Y193041D01*
X110491Y267970D02*
X109221Y266701D01*
Y264162D01*
X110491Y262892D01*
X115569D01*
X116839Y264162D01*
Y266701D01*
X115569Y267970D01*
X116839Y274318D02*
X109221D01*
X113030Y270510D01*
Y275588D01*
X128271Y335280D02*
X127001Y334011D01*
Y331472D01*
X128271Y330202D01*
X133349D01*
X134619Y331472D01*
Y334011D01*
X133349Y335280D01*
X128271Y337820D02*
X127001Y339089D01*
Y341628D01*
X128271Y342898D01*
X129540D01*
X130810Y341628D01*
Y340359D01*
Y341628D01*
X132080Y342898D01*
X133349D01*
X134619Y341628D01*
Y339089D01*
X133349Y337820D01*
X236221Y140970D02*
X234951Y139701D01*
Y137162D01*
X236221Y135892D01*
X241299D01*
X242569Y137162D01*
Y139701D01*
X241299Y140970D01*
X242569Y148588D02*
Y143510D01*
X237490Y148588D01*
X236221D01*
X234951Y147318D01*
Y144779D01*
X236221Y143510D01*
X294639Y110492D02*
X287021D01*
Y114301D01*
X288291Y115570D01*
X290830D01*
X292099Y114301D01*
Y110492D01*
Y113031D02*
X294639Y115570D01*
Y121918D02*
X287021D01*
X290830Y118110D01*
Y123188D01*
X271781Y109856D02*
X270511Y108587D01*
Y106048D01*
X271781Y104778D01*
X276859D01*
X278129Y106048D01*
Y108587D01*
X276859Y109856D01*
X278129Y112396D02*
Y114935D01*
Y113665D01*
X270511D01*
X271781Y112396D01*
X270511Y123822D02*
X271781Y121283D01*
X274320Y118744D01*
X276859D01*
X278129Y120013D01*
Y122552D01*
X276859Y123822D01*
X275590D01*
X274320Y122552D01*
Y118744D01*
X293371Y247016D02*
X292101Y245747D01*
Y243208D01*
X293371Y241938D01*
X298449D01*
X299719Y243208D01*
Y245747D01*
X298449Y247016D01*
X299719Y249556D02*
Y252095D01*
Y250825D01*
X292101D01*
X293371Y249556D01*
X299719Y260982D02*
Y255904D01*
X294640Y260982D01*
X293371D01*
X292101Y259712D01*
Y257173D01*
X293371Y255904D01*
X234952Y237489D02*
Y231141D01*
X236222Y229871D01*
X238761D01*
X240030Y231141D01*
Y237489D01*
X247648D02*
X245109Y236219D01*
X242570Y233680D01*
Y231141D01*
X243839Y229871D01*
X246378D01*
X247648Y231141D01*
Y232410D01*
X246378Y233680D01*
X242570D01*
X388620Y308609D02*
X386081D01*
X387350D01*
Y302261D01*
X386081Y300991D01*
X384811D01*
X383542Y302261D01*
X391159Y300991D02*
X393698D01*
X392429D01*
Y308609D01*
X391159Y307339D01*
X326392Y285751D02*
Y293369D01*
X330201D01*
X331470Y292099D01*
Y289560D01*
X330201Y288290D01*
X326392D01*
X328931D02*
X331470Y285751D01*
X334010Y292099D02*
X335279Y293369D01*
X337818D01*
X339088Y292099D01*
Y290830D01*
X337818Y289560D01*
X336549D01*
X337818D01*
X339088Y288290D01*
Y287021D01*
X337818Y285751D01*
X335279D01*
X334010Y287021D01*
X276861Y322580D02*
X275591Y321310D01*
Y318771D01*
X276861Y317502D01*
X281939D01*
X283209Y318771D01*
Y321310D01*
X281939Y322580D01*
X283209Y325119D02*
Y327658D01*
Y326389D01*
X275591D01*
X276861Y325119D01*
X209552Y129539D02*
Y128269D01*
X212091Y125730D01*
X214630Y128269D01*
Y129539D01*
X212091Y125730D02*
Y121921D01*
X217169D02*
X219708D01*
X218439D01*
Y129539D01*
X217169Y128269D01*
X124462Y219709D02*
Y213361D01*
X125731Y212091D01*
X128270D01*
X129540Y213361D01*
Y219709D01*
X132079Y212091D02*
X134618D01*
X133349D01*
Y219709D01*
X132079Y218439D01*
X247652Y398779D02*
X246382Y400049D01*
X243843D01*
X242573Y398779D01*
Y397510D01*
X243843Y396240D01*
X246382D01*
X247652Y394970D01*
Y393701D01*
X246382Y392431D01*
X243843D01*
X242573Y393701D01*
X250191Y400049D02*
Y392431D01*
X252730Y394970D01*
X255269Y392431D01*
Y400049D01*
X257808D02*
Y392431D01*
X261617D01*
X262887Y393701D01*
Y398779D01*
X261617Y400049D01*
X257808D01*
X146686Y200659D02*
X145417Y201929D01*
X142878D01*
X141608Y200659D01*
Y195581D01*
X142878Y194311D01*
X145417D01*
X146686Y195581D01*
X149226Y194311D02*
X151765D01*
X150495D01*
Y201929D01*
X149226Y200659D01*
X159382Y194311D02*
Y201929D01*
X155574Y198120D01*
X160652D01*
X186056Y200659D02*
X184787Y201929D01*
X182248D01*
X180978Y200659D01*
Y195581D01*
X182248Y194311D01*
X184787D01*
X186056Y195581D01*
X188596Y194311D02*
X191135D01*
X189865D01*
Y201929D01*
X188596Y200659D01*
X200022Y201929D02*
X194944D01*
Y198120D01*
X197483Y199390D01*
X198752D01*
X200022Y198120D01*
Y195581D01*
X198752Y194311D01*
X196213D01*
X194944Y195581D01*
X278134Y223519D02*
Y215901D01*
X281943D01*
X283213Y217171D01*
Y218440D01*
X281943Y219710D01*
X278134D01*
X281943D01*
X283213Y220980D01*
Y222249D01*
X281943Y223519D01*
X278134D01*
X289561D02*
X287022D01*
X285752Y222249D01*
Y217171D01*
X287022Y215901D01*
X289561D01*
X290830Y217171D01*
Y222249D01*
X289561Y223519D01*
X297178D02*
X294639D01*
X293370Y222249D01*
Y217171D01*
X294639Y215901D01*
X297178D01*
X298448Y217171D01*
Y222249D01*
X297178Y223519D01*
X300987D02*
X306066D01*
X303526D01*
Y215901D01*
D15*
X184404Y354584D02*
Y363982D01*
Y352044D02*
Y354584D01*
X178054D02*
X184404D01*
X190754D01*
X178054Y362204D02*
X184404Y354584D01*
X179324Y362204D02*
X184404Y354584D01*
X180594Y362204D02*
X184404Y354584D01*
X181864Y362204D02*
X184404Y354584D01*
X183134Y362204D02*
X184404Y354584D01*
X190754Y362204D01*
X184404Y354584D02*
X189484Y362204D01*
X184404Y354584D02*
X188214Y362204D01*
X184404Y354584D02*
X186944Y362204D01*
X184404Y354584D02*
X185674Y362204D01*
X178054D02*
X190754D01*
X338328Y209804D02*
X341376D01*
X332232D02*
X338328D01*
X329184D02*
X332232D01*
M02*
