G04*
G04 #@! TF.GenerationSoftware,Altium Limited,Altium Designer,23.3.1 (30)*
G04*
G04 Layer_Physical_Order=4*
G04 Layer_Color=16711680*
%FSLAX44Y44*%
%MOMM*%
G71*
G04*
G04 #@! TF.SameCoordinates,610A2BD2-EBF3-4158-A638-8146B1F39EFF*
G04*
G04*
G04 #@! TF.FilePolarity,Positive*
G04*
G01*
G75*
%ADD15C,0.1270*%
%ADD28R,1.4478X0.7620*%
%ADD79C,1.0200*%
%ADD80O,1.8000X0.9000*%
%ADD81C,0.5000*%
%ADD82C,0.4064*%
%ADD83C,0.6350*%
%ADD84C,2.5400*%
G04:AMPARAMS|DCode=97|XSize=0.63mm|YSize=0.5mm|CornerRadius=0.125mm|HoleSize=0mm|Usage=FLASHONLY|Rotation=0.000|XOffset=0mm|YOffset=0mm|HoleType=Round|Shape=RoundedRectangle|*
%AMROUNDEDRECTD97*
21,1,0.6300,0.2500,0,0,0.0*
21,1,0.3800,0.5000,0,0,0.0*
1,1,0.2500,0.1900,-0.1250*
1,1,0.2500,-0.1900,-0.1250*
1,1,0.2500,-0.1900,0.1250*
1,1,0.2500,0.1900,0.1250*
%
%ADD97ROUNDEDRECTD97*%
G04:AMPARAMS|DCode=98|XSize=0.63mm|YSize=0.5mm|CornerRadius=0.125mm|HoleSize=0mm|Usage=FLASHONLY|Rotation=90.000|XOffset=0mm|YOffset=0mm|HoleType=Round|Shape=RoundedRectangle|*
%AMROUNDEDRECTD98*
21,1,0.6300,0.2500,0,0,90.0*
21,1,0.3800,0.5000,0,0,90.0*
1,1,0.2500,0.1250,0.1900*
1,1,0.2500,0.1250,-0.1900*
1,1,0.2500,-0.1250,-0.1900*
1,1,0.2500,-0.1250,0.1900*
%
%ADD98ROUNDEDRECTD98*%
G36*
X266159Y415929D02*
X278874Y414424D01*
X291432Y411926D01*
X303755Y408451D01*
X315768Y404019D01*
X327396Y398658D01*
X338567Y392402D01*
X349213Y385289D01*
X359268Y377362D01*
X368671Y368671D01*
X377362Y359268D01*
X385289Y349213D01*
X392402Y338567D01*
X398658Y327396D01*
X404019Y315768D01*
X408451Y303755D01*
X411690Y292271D01*
X410602Y291682D01*
X410538Y291674D01*
X409194Y292706D01*
X407605Y293364D01*
X405900Y293588D01*
X396900D01*
X395195Y293364D01*
X393606Y292706D01*
X392241Y291659D01*
X391194Y290294D01*
X390536Y288705D01*
X390312Y287000D01*
X390536Y285295D01*
X391194Y283706D01*
X392241Y282341D01*
X393606Y281294D01*
X395195Y280636D01*
X396900Y280412D01*
X405900D01*
X407605Y280636D01*
X409194Y281294D01*
X410559Y282341D01*
X411606Y283706D01*
X411986Y284623D01*
X413306Y284493D01*
X414424Y278874D01*
X415929Y266159D01*
X416432Y253365D01*
X415929Y240571D01*
X414424Y227856D01*
X413456Y222987D01*
X413133Y222911D01*
X412156Y222965D01*
X411606Y224294D01*
X410559Y225659D01*
X409194Y226706D01*
X407605Y227364D01*
X405900Y227588D01*
X396900D01*
X395195Y227364D01*
X393606Y226706D01*
X392241Y225659D01*
X391194Y224294D01*
X390536Y222705D01*
X390312Y221000D01*
X390536Y219295D01*
X391194Y217706D01*
X392241Y216341D01*
X393606Y215294D01*
X395195Y214636D01*
X396900Y214412D01*
X405900D01*
X407605Y214636D01*
X409194Y215294D01*
X410559Y216341D01*
X410937Y216834D01*
X412125Y216296D01*
X411926Y215298D01*
X408451Y202975D01*
X404019Y190962D01*
X398658Y179334D01*
X392402Y168163D01*
X385289Y157517D01*
X377362Y147462D01*
X368671Y138059D01*
X359268Y129368D01*
X349213Y121441D01*
X338567Y114328D01*
X327396Y108071D01*
X315768Y102711D01*
X303755Y98279D01*
X291432Y94804D01*
X278874Y92306D01*
X266159Y90801D01*
X253365Y90298D01*
X240571Y90801D01*
X227856Y92306D01*
X215298Y94804D01*
X202975Y98279D01*
X190962Y102711D01*
X179334Y108071D01*
X168163Y114328D01*
X157517Y121441D01*
X147462Y129368D01*
X138059Y138059D01*
X129368Y147462D01*
X121441Y157517D01*
X114328Y168163D01*
X108071Y179334D01*
X102711Y190962D01*
X98279Y202975D01*
X94804Y215298D01*
X92306Y227856D01*
X90801Y240571D01*
X90298Y253365D01*
X90801Y266159D01*
X92306Y278874D01*
X94804Y291432D01*
X98279Y303755D01*
X102711Y315768D01*
X108071Y327396D01*
X114328Y338567D01*
X121441Y349213D01*
X129368Y359268D01*
X138059Y368671D01*
X147462Y377362D01*
X157517Y385289D01*
X168163Y392402D01*
X179334Y398658D01*
X190962Y404019D01*
X202975Y408451D01*
X215298Y411926D01*
X227856Y414424D01*
X240571Y415929D01*
X253365Y416432D01*
X266159Y415929D01*
D02*
G37*
%LPC*%
G36*
X217170Y403203D02*
Y400050D01*
X220323D01*
X219776Y401370D01*
X218490Y402656D01*
X217170Y403203D01*
D02*
G37*
G36*
X214630D02*
X213310Y402656D01*
X212024Y401370D01*
X211477Y400050D01*
X214630D01*
Y403203D01*
D02*
G37*
G36*
X290368Y406654D02*
X288752D01*
X287258Y406035D01*
X286115Y404892D01*
X285496Y403398D01*
Y401782D01*
X286115Y400288D01*
X287258Y399145D01*
X288752Y398526D01*
X290368D01*
X291862Y399145D01*
X293005Y400288D01*
X293624Y401782D01*
Y403398D01*
X293005Y404892D01*
X291862Y406035D01*
X290368Y406654D01*
D02*
G37*
G36*
X220323Y397510D02*
X217170D01*
Y394357D01*
X218490Y394904D01*
X219776Y396190D01*
X220323Y397510D01*
D02*
G37*
G36*
X214630D02*
X211477D01*
X212024Y396190D01*
X213310Y394904D01*
X214630Y394357D01*
Y397510D01*
D02*
G37*
G36*
X181178Y385466D02*
Y381076D01*
X185568D01*
X184753Y383044D01*
X183146Y384651D01*
X181178Y385466D01*
D02*
G37*
G36*
X178638D02*
X176671Y384651D01*
X175063Y383044D01*
X174248Y381076D01*
X178638D01*
Y385466D01*
D02*
G37*
G36*
X260350Y377803D02*
Y374650D01*
X263503D01*
X262956Y375970D01*
X261670Y377256D01*
X260350Y377803D01*
D02*
G37*
G36*
X185568Y378536D02*
X181178D01*
Y374146D01*
X183146Y374961D01*
X184753Y376569D01*
X185568Y378536D01*
D02*
G37*
G36*
X178638D02*
X174248D01*
X175063Y376569D01*
X176671Y374961D01*
X178638Y374146D01*
Y378536D01*
D02*
G37*
G36*
X273989Y380512D02*
X272111D01*
X270297Y380026D01*
X268671Y379087D01*
X267343Y377759D01*
X266404Y376133D01*
X265918Y374319D01*
Y372441D01*
X266404Y370627D01*
X267343Y369001D01*
X268671Y367673D01*
X270297Y366734D01*
X272111Y366248D01*
X273989D01*
X275803Y366734D01*
X277429Y367673D01*
X278757Y369001D01*
X279696Y370627D01*
X280182Y372441D01*
Y374319D01*
X279696Y376133D01*
X278757Y377759D01*
X277429Y379087D01*
X275803Y380026D01*
X273989Y380512D01*
D02*
G37*
G36*
X151194Y365476D02*
Y361086D01*
X155583D01*
X154768Y363054D01*
X153161Y364661D01*
X151194Y365476D01*
D02*
G37*
G36*
X148653D02*
X146686Y364661D01*
X145079Y363054D01*
X144264Y361086D01*
X148653D01*
Y365476D01*
D02*
G37*
G36*
X155583Y358546D02*
X151194D01*
Y354157D01*
X153161Y354972D01*
X154768Y356579D01*
X155583Y358546D01*
D02*
G37*
G36*
X148653D02*
X144264D01*
X145079Y356579D01*
X146686Y354972D01*
X148653Y354157D01*
Y358546D01*
D02*
G37*
G36*
X344401Y358140D02*
X344170D01*
Y344170D01*
X358140D01*
Y344401D01*
X357554Y347345D01*
X356405Y350119D01*
X354738Y352615D01*
X352615Y354738D01*
X350119Y356405D01*
X347345Y357554D01*
X344401Y358140D01*
D02*
G37*
G36*
X341630D02*
X341399D01*
X338455Y357554D01*
X335681Y356405D01*
X333185Y354738D01*
X331062Y352615D01*
X329394Y350119D01*
X328246Y347345D01*
X327660Y344401D01*
Y344170D01*
X341630D01*
Y358140D01*
D02*
G37*
G36*
X166601D02*
X166370D01*
Y344170D01*
X180340D01*
Y344401D01*
X179754Y347345D01*
X178605Y350119D01*
X176938Y352615D01*
X174815Y354738D01*
X172319Y356405D01*
X169545Y357554D01*
X166601Y358140D01*
D02*
G37*
G36*
X163830D02*
X163599D01*
X160655Y357554D01*
X157881Y356405D01*
X155385Y354738D01*
X153262Y352615D01*
X151594Y350119D01*
X150446Y347345D01*
X149860Y344401D01*
Y344170D01*
X163830D01*
Y358140D01*
D02*
G37*
G36*
X301117Y345486D02*
Y341097D01*
X305507D01*
X304692Y343064D01*
X303084Y344672D01*
X301117Y345486D01*
D02*
G37*
G36*
X298577D02*
X296610Y344672D01*
X295002Y343064D01*
X294187Y341097D01*
X298577D01*
Y345486D01*
D02*
G37*
G36*
X141199D02*
Y341097D01*
X145588D01*
X144774Y343064D01*
X143166Y344672D01*
X141199Y345486D01*
D02*
G37*
G36*
X138659D02*
X136691Y344672D01*
X135084Y343064D01*
X134269Y341097D01*
X138659D01*
Y345486D01*
D02*
G37*
G36*
X305507Y338557D02*
X301117D01*
Y334167D01*
X303084Y334982D01*
X304692Y336589D01*
X305507Y338557D01*
D02*
G37*
G36*
X298577D02*
X294187D01*
X295002Y336589D01*
X296610Y334982D01*
X298577Y334167D01*
Y338557D01*
D02*
G37*
G36*
X145588D02*
X141199D01*
Y334167D01*
X143166Y334982D01*
X144774Y336589D01*
X145588Y338557D01*
D02*
G37*
G36*
X138659D02*
X134269D01*
X135084Y336589D01*
X136691Y334982D01*
X138659Y334167D01*
Y338557D01*
D02*
G37*
G36*
X358140Y341630D02*
X344170D01*
Y327660D01*
X344401D01*
X347345Y328246D01*
X350119Y329394D01*
X352615Y331062D01*
X354738Y333185D01*
X356405Y335681D01*
X357554Y338455D01*
X358140Y341399D01*
Y341630D01*
D02*
G37*
G36*
X341630D02*
X327660D01*
Y341399D01*
X328246Y338455D01*
X329394Y335681D01*
X331062Y333185D01*
X333185Y331062D01*
X335681Y329394D01*
X338455Y328246D01*
X341399Y327660D01*
X341630D01*
Y341630D01*
D02*
G37*
G36*
X180340D02*
X166370D01*
Y327660D01*
X166601D01*
X169545Y328246D01*
X172319Y329394D01*
X174815Y331062D01*
X176938Y333185D01*
X178605Y335681D01*
X179754Y338455D01*
X180340Y341399D01*
Y341630D01*
D02*
G37*
G36*
X163830D02*
X149860D01*
Y341399D01*
X150446Y338455D01*
X151594Y335681D01*
X153262Y333185D01*
X155385Y331062D01*
X157881Y329394D01*
X160655Y328246D01*
X163599Y327660D01*
X163830D01*
Y341630D01*
D02*
G37*
G36*
X267508Y335534D02*
X265892D01*
X264398Y334915D01*
X263255Y333772D01*
X262636Y332278D01*
Y330662D01*
X263255Y329168D01*
X264398Y328025D01*
X265892Y327406D01*
X267508D01*
X269002Y328025D01*
X270145Y329168D01*
X270764Y330662D01*
Y332278D01*
X270145Y333772D01*
X269002Y334915D01*
X267508Y335534D01*
D02*
G37*
G36*
X208640Y329543D02*
Y326390D01*
X211793D01*
X211246Y327710D01*
X209960Y328996D01*
X208640Y329543D01*
D02*
G37*
G36*
X206100D02*
X204780Y328996D01*
X203494Y327710D01*
X202947Y326390D01*
X206100D01*
Y329543D01*
D02*
G37*
G36*
X254000Y328403D02*
Y325250D01*
X257153D01*
X256606Y326570D01*
X255320Y327856D01*
X254000Y328403D01*
D02*
G37*
G36*
X251460D02*
X250140Y327856D01*
X248854Y326570D01*
X248307Y325250D01*
X251460D01*
Y328403D01*
D02*
G37*
G36*
X369805Y326273D02*
Y321883D01*
X374195D01*
X373380Y323850D01*
X371772Y325458D01*
X369805Y326273D01*
D02*
G37*
G36*
X367265D02*
X365298Y325458D01*
X363690Y323850D01*
X362875Y321883D01*
X367265D01*
Y326273D01*
D02*
G37*
G36*
X391071Y325497D02*
Y321107D01*
X395461D01*
X394646Y323074D01*
X393038Y324682D01*
X391071Y325497D01*
D02*
G37*
G36*
X388531D02*
X386564Y324682D01*
X384956Y323074D01*
X384141Y321107D01*
X388531D01*
Y325497D01*
D02*
G37*
G36*
X171183D02*
Y321107D01*
X175573D01*
X174758Y323074D01*
X173151Y324682D01*
X171183Y325497D01*
D02*
G37*
G36*
X168643D02*
X166676Y324682D01*
X165068Y323074D01*
X164254Y321107D01*
X168643D01*
Y325497D01*
D02*
G37*
G36*
X151194D02*
Y321107D01*
X155583D01*
X154768Y323074D01*
X153161Y324682D01*
X151194Y325497D01*
D02*
G37*
G36*
X148653D02*
X146686Y324682D01*
X145079Y323074D01*
X144264Y321107D01*
X148653D01*
Y325497D01*
D02*
G37*
G36*
X131204D02*
Y321107D01*
X135594D01*
X134779Y323074D01*
X133171Y324682D01*
X131204Y325497D01*
D02*
G37*
G36*
X128664D02*
X126696Y324682D01*
X125089Y323074D01*
X124274Y321107D01*
X128664D01*
Y325497D01*
D02*
G37*
G36*
X235889Y380512D02*
X234011D01*
X232197Y380026D01*
X230571Y379087D01*
X229243Y377759D01*
X228304Y376133D01*
X227818Y374319D01*
Y372441D01*
X228304Y370627D01*
X229243Y369001D01*
X230571Y367673D01*
X232197Y366734D01*
X234011Y366248D01*
X235889D01*
X236943Y366530D01*
X237600Y365392D01*
X230573Y358365D01*
X229984Y357483D01*
X229777Y356442D01*
Y314541D01*
X229067Y314067D01*
Y309270D01*
Y304472D01*
X229777Y303998D01*
Y285664D01*
X229984Y284623D01*
X230573Y283741D01*
X232156Y282158D01*
Y281132D01*
X232483Y280341D01*
X231682Y279071D01*
X227742D01*
X227742Y279071D01*
X226701Y278864D01*
X225819Y278275D01*
X221409Y273864D01*
X208826D01*
X207786Y273657D01*
X206903Y273068D01*
X203817Y269981D01*
X203228Y269099D01*
X203021Y268059D01*
Y262746D01*
X202682Y262408D01*
X174599D01*
X174599Y262408D01*
X173558Y262201D01*
X172676Y261612D01*
X167141Y256076D01*
X166005Y256302D01*
X164862Y257445D01*
X163368Y258064D01*
X161752D01*
X160258Y257445D01*
X159115Y256302D01*
X158496Y254808D01*
Y253782D01*
X154261Y249546D01*
X153087Y250032D01*
Y252852D01*
X167952Y267716D01*
X168978D01*
X170472Y268335D01*
X171615Y269478D01*
X172234Y270972D01*
Y272588D01*
X171615Y274082D01*
X170472Y275225D01*
X169585Y275593D01*
Y276967D01*
X170472Y277335D01*
X171615Y278478D01*
X171708Y278701D01*
X173082D01*
X173294Y278190D01*
X174580Y276904D01*
X175900Y276357D01*
Y280780D01*
Y285203D01*
X174580Y284656D01*
X173294Y283370D01*
X173082Y282859D01*
X171708D01*
X171615Y283082D01*
X170472Y284225D01*
X168978Y284844D01*
X167362D01*
X165868Y284225D01*
X164725Y283082D01*
X164106Y281588D01*
Y280562D01*
X147657Y264112D01*
X146483Y264598D01*
Y278528D01*
X210504Y342548D01*
X211058Y341995D01*
X212552Y341376D01*
X214168D01*
X214284Y341424D01*
X215340Y340718D01*
Y329061D01*
X215247Y328968D01*
X214658Y328086D01*
X214451Y327045D01*
Y300990D01*
X214658Y299949D01*
X215247Y299067D01*
X215646Y298668D01*
Y297642D01*
X216265Y296148D01*
X217408Y295005D01*
X218902Y294386D01*
X220518D01*
X222012Y295005D01*
X223155Y296148D01*
X223774Y297642D01*
Y299258D01*
X223155Y300752D01*
X222012Y301895D01*
X220518Y302514D01*
X219889D01*
Y320407D01*
X220945Y321113D01*
X221082Y321056D01*
X222698D01*
X224192Y321675D01*
X225335Y322818D01*
X225954Y324312D01*
Y325928D01*
X225335Y327422D01*
X224192Y328565D01*
X222698Y329184D01*
X221082D01*
X220778Y329387D01*
Y348943D01*
X220571Y349983D01*
X219982Y350866D01*
X219982Y350866D01*
X219889Y350958D01*
Y369316D01*
X220518D01*
X222012Y369935D01*
X223155Y371078D01*
X223774Y372572D01*
Y374188D01*
X223155Y375682D01*
X222012Y376825D01*
X220518Y377444D01*
X218902D01*
X217408Y376825D01*
X216265Y375682D01*
X215646Y374188D01*
Y373162D01*
X215247Y372763D01*
X214658Y371881D01*
X214451Y370840D01*
Y350677D01*
X214233Y349774D01*
X213221Y349504D01*
X212552D01*
X211058Y348885D01*
X210205Y348032D01*
X209423D01*
X208382Y347825D01*
X207500Y347236D01*
X141841Y281577D01*
X141252Y280695D01*
X141045Y279654D01*
Y232520D01*
X133494Y224969D01*
X128758D01*
X128032Y225695D01*
X126538Y226314D01*
X124922D01*
X123428Y225695D01*
X122285Y224552D01*
X121666Y223058D01*
Y221442D01*
X122285Y219948D01*
X123428Y218805D01*
X124922Y218186D01*
X126538D01*
X128032Y218805D01*
X128758Y219531D01*
X134620D01*
X135661Y219738D01*
X136543Y220327D01*
X143173Y226958D01*
X144347Y226472D01*
Y226314D01*
X144554Y225273D01*
X145143Y224391D01*
X183591Y185943D01*
X182872Y184867D01*
X181178Y185568D01*
Y181178D01*
X185568D01*
X184867Y182872D01*
X185943Y183591D01*
X205577Y163957D01*
X205051Y162687D01*
X204704D01*
X202791Y161894D01*
X201326Y160429D01*
X200533Y158516D01*
Y156444D01*
X201326Y154530D01*
X202791Y153066D01*
X204704Y152273D01*
X206776D01*
X208689Y153066D01*
X210154Y154530D01*
X210947Y156444D01*
Y156791D01*
X212217Y157317D01*
X225407Y144127D01*
X226289Y143538D01*
X227330Y143331D01*
X271292D01*
X272018Y142605D01*
X273512Y141986D01*
X275128D01*
X276622Y142605D01*
X277765Y143748D01*
X278384Y145242D01*
Y146858D01*
X277765Y148352D01*
X276622Y149495D01*
X275128Y150114D01*
X273512D01*
X272018Y149495D01*
X271292Y148769D01*
X228456D01*
X224908Y152317D01*
X225394Y153491D01*
X277642D01*
X278368Y152765D01*
X279862Y152146D01*
X281478D01*
X282972Y152765D01*
X283031Y152823D01*
X284301Y152297D01*
Y149078D01*
X283575Y148352D01*
X282956Y146858D01*
Y145242D01*
X283575Y143748D01*
X284718Y142605D01*
X286212Y141986D01*
X287828D01*
X289322Y142605D01*
X290465Y143748D01*
X291084Y145242D01*
Y146858D01*
X290465Y148352D01*
X289739Y149078D01*
Y155462D01*
X290213Y155935D01*
X290802Y156817D01*
X291009Y157858D01*
X291009Y157858D01*
Y167640D01*
X290802Y168681D01*
X290213Y169563D01*
X276388Y183388D01*
X276914Y184658D01*
X277769D01*
X279450Y185354D01*
X280606Y186511D01*
X301134D01*
X301498Y186146D01*
Y184511D01*
X302194Y182830D01*
X303480Y181544D01*
X304800Y180997D01*
Y185420D01*
Y190536D01*
X304183Y191153D01*
X303301Y191742D01*
X302260Y191949D01*
X280606D01*
X279450Y193106D01*
X278130Y193653D01*
Y189230D01*
X275590D01*
Y193653D01*
X274270Y193106D01*
X272984Y191820D01*
X272288Y190139D01*
Y189284D01*
X271018Y188758D01*
X249425Y210350D01*
X248543Y210940D01*
X247502Y211147D01*
X234659D01*
X209489Y236317D01*
X209975Y237490D01*
X220082D01*
X220345Y237438D01*
X220345Y237438D01*
X225503D01*
X225952Y236168D01*
X225447Y234950D01*
X229870D01*
Y233680D01*
X231140D01*
Y229257D01*
X232460Y229804D01*
X233746Y231090D01*
X233949Y231580D01*
X235447Y231878D01*
X235567Y231757D01*
X235567Y231757D01*
X236449Y231168D01*
X237490Y230961D01*
X239542D01*
X240268Y230235D01*
X241762Y229616D01*
X243378D01*
X244872Y230235D01*
X246015Y231378D01*
X246634Y232872D01*
Y234488D01*
X246015Y235982D01*
X244872Y237125D01*
X243645Y237634D01*
X243897Y238904D01*
X245950D01*
X247231Y239158D01*
X248221Y239820D01*
X248372Y239880D01*
X249775Y239781D01*
X250018Y239418D01*
X251271Y238580D01*
X252730Y238290D01*
Y244050D01*
X255270D01*
Y238290D01*
X255449Y238325D01*
X258825Y234950D01*
X268583D01*
X268036Y236270D01*
X266750Y237556D01*
X266372Y237713D01*
X266502Y239033D01*
X267131Y239158D01*
X268216Y239884D01*
X268941Y240969D01*
X269196Y242250D01*
Y242765D01*
X269641Y243062D01*
X285405Y258826D01*
X300101D01*
Y260801D01*
X301274Y261287D01*
X306011Y256550D01*
X305816Y256078D01*
Y254462D01*
X306435Y252968D01*
X307578Y251825D01*
X309072Y251206D01*
X310334D01*
X310930Y250149D01*
X310957Y250033D01*
X310098Y249174D01*
X309072D01*
X307578Y248555D01*
X306435Y247412D01*
X305816Y245918D01*
Y244302D01*
X306435Y242808D01*
X307578Y241665D01*
X309072Y241046D01*
X310688D01*
X312182Y241665D01*
X313325Y242808D01*
X313944Y244302D01*
Y245328D01*
X316502Y247886D01*
X316502Y247886D01*
X317091Y248768D01*
X317298Y249809D01*
X317298Y249809D01*
Y257216D01*
X317091Y258257D01*
X316502Y259139D01*
X316502Y259139D01*
X307265Y268376D01*
Y271161D01*
X307058Y272201D01*
X306469Y273084D01*
X306469Y273084D01*
X292524Y287028D01*
X292822Y288526D01*
X293132Y288655D01*
X294275Y289798D01*
X294894Y291292D01*
Y292908D01*
X294275Y294402D01*
X293132Y295545D01*
X291638Y296164D01*
X290022D01*
X288528Y295545D01*
X287385Y294402D01*
X286766Y292908D01*
Y291349D01*
X284884D01*
X265970Y310263D01*
X265088Y310853D01*
X264047Y311060D01*
X241400D01*
X240935Y312182D01*
X239792Y313325D01*
X238298Y313944D01*
X236682D01*
X236271Y313774D01*
X235215Y314480D01*
Y355316D01*
X248626Y368727D01*
X250242D01*
X258941Y360027D01*
X259823Y359438D01*
X260864Y359231D01*
X295422D01*
X296148Y358505D01*
X297642Y357886D01*
X299258D01*
X300752Y358505D01*
X301895Y359648D01*
X302514Y361142D01*
Y362758D01*
X301895Y364252D01*
X300752Y365395D01*
X299258Y366014D01*
X297642D01*
X296148Y365395D01*
X295422Y364669D01*
X261990D01*
X259122Y367538D01*
X259648Y368808D01*
X259989D01*
X261670Y369504D01*
X262956Y370790D01*
X263503Y372110D01*
X259080D01*
Y373380D01*
X257810D01*
Y377803D01*
X256490Y377256D01*
X255204Y375970D01*
X254669Y374679D01*
X253335Y374583D01*
X252879Y375682D01*
X251736Y376825D01*
X250242Y377444D01*
X248626D01*
X247132Y376825D01*
X245989Y375682D01*
X245370Y374188D01*
Y373162D01*
X242938Y370730D01*
X241800Y371387D01*
X242082Y372441D01*
Y374319D01*
X241596Y376133D01*
X240657Y377759D01*
X239329Y379087D01*
X237703Y380026D01*
X235889Y380512D01*
D02*
G37*
G36*
X211793Y323850D02*
X208640D01*
Y320697D01*
X209960Y321244D01*
X211246Y322530D01*
X211793Y323850D01*
D02*
G37*
G36*
X206100D02*
X202947D01*
X203494Y322530D01*
X204780Y321244D01*
X206100Y320697D01*
Y323850D01*
D02*
G37*
G36*
X257153Y322710D02*
X254000D01*
Y319557D01*
X255320Y320104D01*
X256606Y321390D01*
X257153Y322710D01*
D02*
G37*
G36*
X251460D02*
X248307D01*
X248854Y321390D01*
X250140Y320104D01*
X251460Y319557D01*
Y322710D01*
D02*
G37*
G36*
X369571Y343600D02*
X367499D01*
X365586Y342807D01*
X364121Y341342D01*
X363328Y339428D01*
Y337357D01*
X363894Y335990D01*
X346854Y318949D01*
X331958D01*
X331232Y319675D01*
X329738Y320294D01*
X328122D01*
X326628Y319675D01*
X325485Y318532D01*
X324866Y317038D01*
Y315422D01*
X325485Y313928D01*
X326628Y312785D01*
X328122Y312166D01*
X329738D01*
X331232Y312785D01*
X331958Y313511D01*
X347980D01*
X349021Y313718D01*
X349903Y314307D01*
X368781Y333186D01*
X369571D01*
X371485Y333979D01*
X372949Y335443D01*
X373742Y337357D01*
Y339428D01*
X372949Y341342D01*
X371485Y342807D01*
X369571Y343600D01*
D02*
G37*
G36*
X374195Y319343D02*
X369805D01*
Y314953D01*
X371772Y315768D01*
X373380Y317375D01*
X374195Y319343D01*
D02*
G37*
G36*
X367265D02*
X362875D01*
X363690Y317375D01*
X365298Y315768D01*
X367265Y314953D01*
Y319343D01*
D02*
G37*
G36*
X395461Y318567D02*
X391071D01*
Y314177D01*
X393038Y314992D01*
X394646Y316600D01*
X395461Y318567D01*
D02*
G37*
G36*
X388531D02*
X384141D01*
X384956Y316600D01*
X386564Y314992D01*
X388531Y314177D01*
Y318567D01*
D02*
G37*
G36*
X175573D02*
X171183D01*
Y314177D01*
X173151Y314992D01*
X174758Y316600D01*
X175573Y318567D01*
D02*
G37*
G36*
X168643D02*
X164254D01*
X165068Y316600D01*
X166676Y314992D01*
X168643Y314177D01*
Y318567D01*
D02*
G37*
G36*
X155583D02*
X151194D01*
Y314177D01*
X153161Y314992D01*
X154768Y316600D01*
X155583Y318567D01*
D02*
G37*
G36*
X148653D02*
X144264D01*
X145079Y316600D01*
X146686Y314992D01*
X148653Y314177D01*
Y318567D01*
D02*
G37*
G36*
X135594D02*
X131204D01*
Y314177D01*
X133171Y314992D01*
X134779Y316600D01*
X135594Y318567D01*
D02*
G37*
G36*
X128664D02*
X124274D01*
X125089Y316600D01*
X126696Y314992D01*
X128664Y314177D01*
Y318567D01*
D02*
G37*
G36*
X226527Y313692D02*
X225207Y313146D01*
X223921Y311859D01*
X223374Y310540D01*
X226527D01*
Y313692D01*
D02*
G37*
G36*
Y308000D02*
X223374D01*
X223921Y306680D01*
X225207Y305394D01*
X226527Y304847D01*
Y308000D01*
D02*
G37*
G36*
X361086Y305507D02*
Y301117D01*
X365476D01*
X364661Y303084D01*
X363054Y304692D01*
X361086Y305507D01*
D02*
G37*
G36*
X358546D02*
X356579Y304692D01*
X354972Y303084D01*
X354157Y301117D01*
X358546D01*
Y305507D01*
D02*
G37*
G36*
X141199D02*
Y301117D01*
X145588D01*
X144774Y303084D01*
X143166Y304692D01*
X141199Y305507D01*
D02*
G37*
G36*
X138659D02*
X136691Y304692D01*
X135084Y303084D01*
X134269Y301117D01*
X138659D01*
Y305507D01*
D02*
G37*
G36*
X323193Y298450D02*
X320040D01*
Y295297D01*
X321360Y295844D01*
X322646Y297130D01*
X323193Y298450D01*
D02*
G37*
G36*
X317500D02*
X314347D01*
X314894Y297130D01*
X316180Y295844D01*
X317500Y295297D01*
Y298450D01*
D02*
G37*
G36*
X365476Y298577D02*
X361086D01*
Y294187D01*
X363054Y295002D01*
X364661Y296610D01*
X365476Y298577D01*
D02*
G37*
G36*
X358546D02*
X354157D01*
X354972Y296610D01*
X356579Y295002D01*
X358546Y294187D01*
Y298577D01*
D02*
G37*
G36*
X145588D02*
X141199D01*
Y294187D01*
X143166Y295002D01*
X144774Y296610D01*
X145588Y298577D01*
D02*
G37*
G36*
X138659D02*
X134269D01*
X135084Y296610D01*
X136691Y295002D01*
X138659Y294187D01*
Y298577D01*
D02*
G37*
G36*
X178440Y285203D02*
Y282050D01*
X181593D01*
X181046Y283370D01*
X179760Y284656D01*
X178440Y285203D01*
D02*
G37*
G36*
X131204Y285517D02*
Y281127D01*
X135594D01*
X134779Y283095D01*
X133171Y284702D01*
X131204Y285517D01*
D02*
G37*
G36*
X128664D02*
X126696Y284702D01*
X125089Y283095D01*
X124274Y281127D01*
X128664D01*
Y285517D01*
D02*
G37*
G36*
X111214D02*
Y281127D01*
X115604D01*
X114789Y283095D01*
X113181Y284702D01*
X111214Y285517D01*
D02*
G37*
G36*
X108674D02*
X106707Y284702D01*
X105099Y283095D01*
X104284Y281127D01*
X108674D01*
Y285517D01*
D02*
G37*
G36*
X181593Y279510D02*
X178440D01*
Y276357D01*
X179760Y276904D01*
X181046Y278190D01*
X181593Y279510D01*
D02*
G37*
G36*
X135594Y278587D02*
X131204D01*
Y274197D01*
X133171Y275012D01*
X134779Y276620D01*
X135594Y278587D01*
D02*
G37*
G36*
X128664D02*
X124274D01*
X125089Y276620D01*
X126696Y275012D01*
X128664Y274197D01*
Y278587D01*
D02*
G37*
G36*
X115604D02*
X111214D01*
Y274197D01*
X113181Y275012D01*
X114789Y276620D01*
X115604Y278587D01*
D02*
G37*
G36*
X108674D02*
X104284D01*
X105099Y276620D01*
X106707Y275012D01*
X108674Y274197D01*
Y278587D01*
D02*
G37*
G36*
X121209Y265527D02*
Y261137D01*
X125599D01*
X124784Y263105D01*
X123176Y264712D01*
X121209Y265527D01*
D02*
G37*
G36*
X118669D02*
X116701Y264712D01*
X115094Y263105D01*
X114279Y261137D01*
X118669D01*
Y265527D01*
D02*
G37*
G36*
X125599Y258597D02*
X121209D01*
Y254208D01*
X123176Y255023D01*
X124784Y256630D01*
X125599Y258597D01*
D02*
G37*
G36*
X118669D02*
X114279D01*
X115094Y256630D01*
X116701Y255023D01*
X118669Y254208D01*
Y258597D01*
D02*
G37*
G36*
X356870Y254613D02*
Y251460D01*
X360023D01*
X359476Y252780D01*
X358190Y254066D01*
X356870Y254613D01*
D02*
G37*
G36*
X354330D02*
X353010Y254066D01*
X351724Y252780D01*
X351177Y251460D01*
X354330D01*
Y254613D01*
D02*
G37*
G36*
X360023Y248920D02*
X356870D01*
Y245767D01*
X358190Y246314D01*
X359476Y247600D01*
X360023Y248920D01*
D02*
G37*
G36*
X354330D02*
X351177D01*
X351724Y247600D01*
X353010Y246314D01*
X354330Y245767D01*
Y248920D01*
D02*
G37*
G36*
X111214Y245537D02*
Y241148D01*
X115604D01*
X114789Y243115D01*
X113181Y244722D01*
X111214Y245537D01*
D02*
G37*
G36*
X108674D02*
X106707Y244722D01*
X105099Y243115D01*
X104284Y241148D01*
X108674D01*
Y245537D01*
D02*
G37*
G36*
X318308Y338074D02*
X316692D01*
X315198Y337455D01*
X314055Y336312D01*
X313436Y334818D01*
Y333202D01*
X314055Y331708D01*
X314781Y330982D01*
Y309880D01*
X314988Y308839D01*
X315577Y307957D01*
X318069Y305465D01*
X317568Y304171D01*
X316180Y303596D01*
X314894Y302310D01*
X314347Y300990D01*
X323193D01*
X322741Y302081D01*
X323264Y303351D01*
X327804D01*
X330021Y301134D01*
Y237346D01*
X327804Y235129D01*
X314178D01*
X313452Y235855D01*
X311958Y236474D01*
X310342D01*
X308848Y235855D01*
X307705Y234712D01*
X307086Y233218D01*
Y231602D01*
X307705Y230108D01*
X308848Y228965D01*
X310342Y228346D01*
X311958D01*
X313452Y228965D01*
X314178Y229691D01*
X328930D01*
X329971Y229898D01*
X330853Y230487D01*
X334663Y234297D01*
X335252Y235179D01*
X335459Y236220D01*
Y302260D01*
X335252Y303301D01*
X334663Y304183D01*
X330853Y307993D01*
X329971Y308582D01*
X328930Y308789D01*
X322436D01*
X320219Y311006D01*
Y330982D01*
X320945Y331708D01*
X321564Y333202D01*
Y334818D01*
X320945Y336312D01*
X319802Y337455D01*
X318308Y338074D01*
D02*
G37*
G36*
X115604Y238608D02*
X111214D01*
Y234218D01*
X113181Y235033D01*
X114789Y236640D01*
X115604Y238608D01*
D02*
G37*
G36*
X108674D02*
X104284D01*
X105099Y236640D01*
X106707Y235033D01*
X108674Y234218D01*
Y238608D01*
D02*
G37*
G36*
X363220Y234293D02*
Y231140D01*
X366373D01*
X365826Y232460D01*
X364540Y233746D01*
X363220Y234293D01*
D02*
G37*
G36*
X360680D02*
X359360Y233746D01*
X358074Y232460D01*
X357527Y231140D01*
X360680D01*
Y234293D01*
D02*
G37*
G36*
X300101Y249174D02*
X281559D01*
Y241336D01*
X280552Y240328D01*
X279962Y239446D01*
X279764Y238447D01*
X279638Y238395D01*
X278495Y237252D01*
X277876Y235758D01*
Y234142D01*
X278495Y232648D01*
X279638Y231505D01*
X281132Y230886D01*
X282748D01*
X284242Y231505D01*
X285385Y232648D01*
X286004Y234142D01*
Y235758D01*
X285813Y236220D01*
X286661Y237490D01*
X300101D01*
Y249174D01*
D02*
G37*
G36*
X268583Y232410D02*
X265430D01*
Y229257D01*
X266750Y229804D01*
X268036Y231090D01*
X268583Y232410D01*
D02*
G37*
G36*
X262890D02*
X259737D01*
X260284Y231090D01*
X261570Y229804D01*
X262890Y229257D01*
Y232410D01*
D02*
G37*
G36*
X228600D02*
X225447D01*
X225994Y231090D01*
X227280Y229804D01*
X228600Y229257D01*
Y232410D01*
D02*
G37*
G36*
X366373Y228600D02*
X363220D01*
Y225447D01*
X364540Y225994D01*
X365826Y227280D01*
X366373Y228600D01*
D02*
G37*
G36*
X360680D02*
X357527D01*
X358074Y227280D01*
X359360Y225994D01*
X360680Y225447D01*
Y228600D01*
D02*
G37*
G36*
X240347Y220625D02*
X238730D01*
X237236Y220007D01*
X236093Y218863D01*
X235474Y217369D01*
Y215753D01*
X236093Y214259D01*
X237236Y213116D01*
X238730Y212497D01*
X240347D01*
X241840Y213116D01*
X242983Y214259D01*
X243602Y215753D01*
Y217369D01*
X242983Y218863D01*
X241840Y220007D01*
X240347Y220625D01*
D02*
G37*
G36*
X323850Y215243D02*
Y212090D01*
X327003D01*
X326456Y213410D01*
X325170Y214696D01*
X323850Y215243D01*
D02*
G37*
G36*
X321310D02*
X319990Y214696D01*
X318704Y213410D01*
X318157Y212090D01*
X321310D01*
Y215243D01*
D02*
G37*
G36*
X327003Y209550D02*
X323850D01*
Y206397D01*
X325170Y206944D01*
X326456Y208230D01*
X327003Y209550D01*
D02*
G37*
G36*
X321310D02*
X318157D01*
X318704Y208230D01*
X319990Y206944D01*
X321310Y206397D01*
Y209550D01*
D02*
G37*
G36*
X391071Y205558D02*
Y201168D01*
X395461D01*
X394646Y203135D01*
X393038Y204743D01*
X391071Y205558D01*
D02*
G37*
G36*
X388531D02*
X386564Y204743D01*
X384956Y203135D01*
X384141Y201168D01*
X388531D01*
Y205558D01*
D02*
G37*
G36*
X151194D02*
Y201168D01*
X155583D01*
X154768Y203135D01*
X153161Y204743D01*
X151194Y205558D01*
D02*
G37*
G36*
X148653D02*
X146686Y204743D01*
X145079Y203135D01*
X144264Y201168D01*
X148653D01*
Y205558D01*
D02*
G37*
G36*
X395461Y198628D02*
X391071D01*
Y194238D01*
X393038Y195053D01*
X394646Y196661D01*
X395461Y198628D01*
D02*
G37*
G36*
X388531D02*
X384141D01*
X384956Y196661D01*
X386564Y195053D01*
X388531Y194238D01*
Y198628D01*
D02*
G37*
G36*
X155583D02*
X151194D01*
Y194238D01*
X153161Y195053D01*
X154768Y196661D01*
X155583Y198628D01*
D02*
G37*
G36*
X148653D02*
X144264D01*
X145079Y196661D01*
X146686Y195053D01*
X148653Y194238D01*
Y198628D01*
D02*
G37*
G36*
X307340Y189843D02*
Y186690D01*
X310493D01*
X309946Y188010D01*
X308660Y189296D01*
X307340Y189843D01*
D02*
G37*
G36*
X178638Y185568D02*
X176671Y184753D01*
X175063Y183146D01*
X174248Y181178D01*
X178638D01*
Y185568D01*
D02*
G37*
G36*
X141199D02*
Y181178D01*
X145588D01*
X144774Y183146D01*
X143166Y184753D01*
X141199Y185568D01*
D02*
G37*
G36*
X138659D02*
X136691Y184753D01*
X135084Y183146D01*
X134269Y181178D01*
X138659D01*
Y185568D01*
D02*
G37*
G36*
X310493Y184150D02*
X307340D01*
Y180997D01*
X308660Y181544D01*
X309946Y182830D01*
X310493Y184150D01*
D02*
G37*
G36*
X185568Y178638D02*
X181178D01*
Y174248D01*
X183146Y175063D01*
X184753Y176671D01*
X185568Y178638D01*
D02*
G37*
G36*
X145588D02*
X141199D01*
Y174248D01*
X143166Y175063D01*
X144774Y176671D01*
X145588Y178638D01*
D02*
G37*
G36*
X138659D02*
X134269D01*
X135084Y176671D01*
X136691Y175063D01*
X138659Y174248D01*
Y178638D01*
D02*
G37*
G36*
X344401Y180340D02*
X344170D01*
Y166370D01*
X358140D01*
Y166601D01*
X357554Y169545D01*
X356405Y172319D01*
X354738Y174815D01*
X352615Y176938D01*
X350119Y178605D01*
X347345Y179754D01*
X344401Y180340D01*
D02*
G37*
G36*
X341630D02*
X341399D01*
X338455Y179754D01*
X335681Y178605D01*
X333185Y176938D01*
X331062Y174815D01*
X329394Y172319D01*
X328246Y169545D01*
X327660Y166601D01*
Y166370D01*
X341630D01*
Y180340D01*
D02*
G37*
G36*
X166601D02*
X166370D01*
Y166370D01*
X180340D01*
Y166601D01*
X179754Y169545D01*
X178605Y172319D01*
X178080Y173105D01*
X178552Y173847D01*
X178638Y173938D01*
Y178638D01*
X173938D01*
X173847Y178552D01*
X173105Y178080D01*
X172319Y178605D01*
X169545Y179754D01*
X166601Y180340D01*
D02*
G37*
G36*
X163830D02*
X163599D01*
X160655Y179754D01*
X157881Y178605D01*
X155385Y176938D01*
X153262Y174815D01*
X151594Y172319D01*
X150446Y169545D01*
X149860Y166601D01*
Y166370D01*
X163830D01*
Y180340D01*
D02*
G37*
G36*
X371081Y165578D02*
Y161188D01*
X375471D01*
X374656Y163156D01*
X373049Y164763D01*
X371081Y165578D01*
D02*
G37*
G36*
X368541D02*
X366574Y164763D01*
X364966Y163156D01*
X364151Y161188D01*
X368541D01*
Y165578D01*
D02*
G37*
G36*
X191173D02*
Y161188D01*
X195563D01*
X194748Y163156D01*
X193140Y164763D01*
X191173Y165578D01*
D02*
G37*
G36*
X188633D02*
X186666Y164763D01*
X185058Y163156D01*
X184243Y161188D01*
X188633D01*
Y165578D01*
D02*
G37*
G36*
X375471Y158648D02*
X371081D01*
Y154259D01*
X373049Y155073D01*
X374656Y156681D01*
X375471Y158648D01*
D02*
G37*
G36*
X368541D02*
X364151D01*
X364966Y156681D01*
X366574Y155073D01*
X368541Y154259D01*
Y158648D01*
D02*
G37*
G36*
X195563D02*
X191173D01*
Y154259D01*
X193140Y155073D01*
X194748Y156681D01*
X195563Y158648D01*
D02*
G37*
G36*
X188633D02*
X184243D01*
X185058Y156681D01*
X186666Y155073D01*
X188633Y154259D01*
Y158648D01*
D02*
G37*
G36*
X358140Y163830D02*
X344170D01*
Y149860D01*
X344401D01*
X347345Y150446D01*
X350119Y151594D01*
X352615Y153262D01*
X354738Y155385D01*
X356405Y157881D01*
X357554Y160655D01*
X358140Y163599D01*
Y163830D01*
D02*
G37*
G36*
X341630D02*
X327660D01*
Y163599D01*
X328246Y160655D01*
X329394Y157881D01*
X331062Y155385D01*
X333185Y153262D01*
X335681Y151594D01*
X338455Y150446D01*
X341399Y149860D01*
X341630D01*
Y163830D01*
D02*
G37*
G36*
X180340D02*
X166370D01*
Y149860D01*
X166601D01*
X169545Y150446D01*
X172319Y151594D01*
X174815Y153262D01*
X176938Y155385D01*
X178605Y157881D01*
X179754Y160655D01*
X180340Y163599D01*
Y163830D01*
D02*
G37*
G36*
X163830D02*
X149860D01*
Y163599D01*
X150446Y160655D01*
X151594Y157881D01*
X153262Y155385D01*
X155385Y153262D01*
X157881Y151594D01*
X160655Y150446D01*
X163599Y149860D01*
X163830D01*
Y163830D01*
D02*
G37*
G36*
X341097Y145588D02*
Y141199D01*
X345486D01*
X344672Y143166D01*
X343064Y144774D01*
X341097Y145588D01*
D02*
G37*
G36*
X338557D02*
X336589Y144774D01*
X334982Y143166D01*
X334167Y141199D01*
X338557D01*
Y145588D01*
D02*
G37*
G36*
X181178D02*
Y141199D01*
X185568D01*
X184753Y143166D01*
X183146Y144774D01*
X181178Y145588D01*
D02*
G37*
G36*
X178638D02*
X176671Y144774D01*
X175063Y143166D01*
X174248Y141199D01*
X178638D01*
Y145588D01*
D02*
G37*
G36*
X161188D02*
Y141199D01*
X165578D01*
X164763Y143166D01*
X163156Y144774D01*
X161188Y145588D01*
D02*
G37*
G36*
X158648D02*
X156681Y144774D01*
X155073Y143166D01*
X154259Y141199D01*
X158648D01*
Y145588D01*
D02*
G37*
G36*
X207010Y145360D02*
Y140970D01*
X211400D01*
X210585Y142937D01*
X208977Y144545D01*
X207010Y145360D01*
D02*
G37*
G36*
X204470D02*
X202503Y144545D01*
X200895Y142937D01*
X200080Y140970D01*
X204470D01*
Y145360D01*
D02*
G37*
G36*
X345486Y138659D02*
X341097D01*
Y134269D01*
X343064Y135084D01*
X344672Y136691D01*
X345486Y138659D01*
D02*
G37*
G36*
X338557D02*
X334167D01*
X334982Y136691D01*
X336589Y135084D01*
X338557Y134269D01*
Y138659D01*
D02*
G37*
G36*
X185568D02*
X181178D01*
Y134269D01*
X183146Y135084D01*
X184753Y136691D01*
X185568Y138659D01*
D02*
G37*
G36*
X178638D02*
X174248D01*
X175063Y136691D01*
X176671Y135084D01*
X178638Y134269D01*
Y138659D01*
D02*
G37*
G36*
X165578D02*
X161188D01*
Y134269D01*
X163156Y135084D01*
X164763Y136691D01*
X165578Y138659D01*
D02*
G37*
G36*
X158648D02*
X154259D01*
X155073Y136691D01*
X156681Y135084D01*
X158648Y134269D01*
Y138659D01*
D02*
G37*
G36*
X211400Y138430D02*
X207010D01*
Y134040D01*
X208977Y134855D01*
X210585Y136463D01*
X211400Y138430D01*
D02*
G37*
G36*
X204470D02*
X200080D01*
X200895Y136463D01*
X202503Y134855D01*
X204470Y134040D01*
Y138430D01*
D02*
G37*
G36*
X240838Y138684D02*
X239222D01*
X237728Y138065D01*
X236585Y136922D01*
X235966Y135428D01*
Y133812D01*
X236585Y132318D01*
X237728Y131175D01*
X239222Y130556D01*
X240838D01*
X242332Y131175D01*
X243475Y132318D01*
X244094Y133812D01*
Y135428D01*
X243475Y136922D01*
X242332Y138065D01*
X240838Y138684D01*
D02*
G37*
G36*
X231153Y125599D02*
Y121209D01*
X235543D01*
X234728Y123176D01*
X233120Y124784D01*
X231153Y125599D01*
D02*
G37*
G36*
X228613D02*
X226645Y124784D01*
X225038Y123176D01*
X224223Y121209D01*
X228613D01*
Y125599D01*
D02*
G37*
G36*
X211163D02*
Y121209D01*
X215553D01*
X214738Y123176D01*
X213130Y124784D01*
X211163Y125599D01*
D02*
G37*
G36*
X208623D02*
X206656Y124784D01*
X205048Y123176D01*
X204233Y121209D01*
X208623D01*
Y125599D01*
D02*
G37*
G36*
X191173D02*
Y121209D01*
X195563D01*
X194748Y123176D01*
X193140Y124784D01*
X191173Y125599D01*
D02*
G37*
G36*
X188633D02*
X186666Y124784D01*
X185058Y123176D01*
X184243Y121209D01*
X188633D01*
Y125599D01*
D02*
G37*
G36*
X235543Y118669D02*
X231153D01*
Y114279D01*
X233120Y115094D01*
X234728Y116701D01*
X235543Y118669D01*
D02*
G37*
G36*
X228613D02*
X224223D01*
X225038Y116701D01*
X226645Y115094D01*
X228613Y114279D01*
Y118669D01*
D02*
G37*
G36*
X215553D02*
X211163D01*
Y114279D01*
X213130Y115094D01*
X214738Y116701D01*
X215553Y118669D01*
D02*
G37*
G36*
X208623D02*
X204233D01*
X205048Y116701D01*
X206656Y115094D01*
X208623Y114279D01*
Y118669D01*
D02*
G37*
G36*
X195563D02*
X191173D01*
Y114279D01*
X193140Y115094D01*
X194748Y116701D01*
X195563Y118669D01*
D02*
G37*
G36*
X188633D02*
X184243D01*
X185058Y116701D01*
X186666Y115094D01*
X188633Y114279D01*
Y118669D01*
D02*
G37*
%LPD*%
G36*
X280257Y282897D02*
X281139Y282307D01*
X282180Y282101D01*
X284373D01*
X294790Y271683D01*
X294304Y270510D01*
X281559D01*
X280670Y271412D01*
X280642Y271551D01*
X280053Y272433D01*
X280053Y272433D01*
X277513Y274973D01*
X276631Y275562D01*
X275590Y275769D01*
X269343D01*
X268817Y277039D01*
X268875Y277098D01*
X269494Y278592D01*
Y280208D01*
X268875Y281702D01*
X267732Y282845D01*
X266238Y283464D01*
X264622D01*
X263128Y282845D01*
X261985Y281702D01*
X261366Y280208D01*
Y279182D01*
X261256Y279071D01*
X240758D01*
X239957Y280341D01*
X240284Y281132D01*
Y282748D01*
X239665Y284242D01*
X238522Y285385D01*
X237028Y286004D01*
X236002D01*
X235215Y286790D01*
Y295682D01*
X236271Y296388D01*
X236387Y296340D01*
X238003D01*
X239497Y296958D01*
X240223Y297684D01*
X265469D01*
X280257Y282897D01*
D02*
G37*
G36*
X239454Y260622D02*
X239058Y260031D01*
X238804Y258750D01*
Y256250D01*
X239058Y254969D01*
X239706Y254000D01*
X239058Y253031D01*
X238804Y251750D01*
Y249250D01*
X239058Y247969D01*
X239706Y247000D01*
X239058Y246031D01*
X238804Y244750D01*
Y242250D01*
X239058Y240969D01*
X239784Y239884D01*
X240869Y239158D01*
X241193Y239094D01*
X241697Y237793D01*
X241667Y237705D01*
X240268Y237125D01*
X239785Y236643D01*
X238373D01*
X232936Y242080D01*
X232054Y242669D01*
X231013Y242876D01*
X226441D01*
Y249174D01*
X220389D01*
X219903Y250347D01*
X221344Y251789D01*
X226500D01*
X227541Y251996D01*
X228423Y252585D01*
X232301Y256463D01*
X232890Y257345D01*
X233097Y258386D01*
Y261781D01*
X238763D01*
X239454Y260622D01*
D02*
G37*
G36*
X172679Y253780D02*
X173736Y253184D01*
Y251922D01*
X174355Y250428D01*
X175498Y249285D01*
X176992Y248666D01*
X178608D01*
X180102Y249285D01*
X180828Y250011D01*
X181458D01*
X194357Y237112D01*
X193638Y236035D01*
X192578Y236474D01*
X190962D01*
X189468Y235855D01*
X188325Y234712D01*
X187706Y233218D01*
Y231602D01*
X188325Y230108D01*
X189468Y228965D01*
X190962Y228346D01*
X192578D01*
X194072Y228965D01*
X195215Y230108D01*
X195834Y231602D01*
Y233218D01*
X195395Y234278D01*
X196472Y234997D01*
X228266Y203203D01*
X228266Y203203D01*
X229148Y202614D01*
X230189Y202407D01*
X230189Y202407D01*
X244598D01*
X270331Y176674D01*
Y171938D01*
X269605Y171212D01*
X268986Y169718D01*
Y168102D01*
X269605Y166608D01*
X270748Y165465D01*
X272242Y164846D01*
X273858D01*
X275352Y165465D01*
X276495Y166608D01*
X277114Y168102D01*
Y169718D01*
X276495Y171212D01*
X275769Y171938D01*
Y174656D01*
X276943Y175142D01*
X285571Y166514D01*
Y159394D01*
X284427Y158679D01*
X283789Y158839D01*
X282972Y159655D01*
X281478Y160274D01*
X279862D01*
X278368Y159655D01*
X277642Y158929D01*
X233396D01*
X232547Y160199D01*
X232664Y160482D01*
Y162098D01*
X232045Y163592D01*
X230902Y164735D01*
X229408Y165354D01*
X227792D01*
X226298Y164735D01*
X225572Y164009D01*
X222556D01*
X167109Y219456D01*
X167635Y220726D01*
X168088D01*
X169582Y221345D01*
X170725Y222488D01*
X171344Y223982D01*
Y225598D01*
X170725Y227092D01*
X169582Y228235D01*
X168088Y228854D01*
X166472D01*
X164978Y228235D01*
X163835Y227092D01*
X163216Y225598D01*
Y225145D01*
X161946Y224619D01*
X156389Y230176D01*
Y243984D01*
X162342Y249936D01*
X163368D01*
X164222Y250290D01*
X165492Y249526D01*
Y242087D01*
X163689Y240284D01*
X162663D01*
X161169Y239665D01*
X160026Y238522D01*
X159407Y237028D01*
Y235412D01*
X160026Y233918D01*
X161169Y232775D01*
X162663Y232156D01*
X164279D01*
X165773Y232775D01*
X166916Y233918D01*
X167535Y235412D01*
Y236438D01*
X170134Y239038D01*
X170135Y239038D01*
X170724Y239920D01*
X170931Y240961D01*
X170931Y240961D01*
Y252175D01*
X172563Y253807D01*
X172679Y253780D01*
D02*
G37*
%LPC*%
G36*
X248010Y293983D02*
Y290830D01*
X251163D01*
X250616Y292150D01*
X249330Y293436D01*
X248010Y293983D01*
D02*
G37*
G36*
X245470D02*
X244150Y293436D01*
X242864Y292150D01*
X242317Y290830D01*
X245470D01*
Y293983D01*
D02*
G37*
G36*
X251163Y288290D02*
X248010D01*
Y285137D01*
X249330Y285684D01*
X250616Y286970D01*
X251163Y288290D01*
D02*
G37*
G36*
X245470D02*
X242317D01*
X242864Y286970D01*
X244150Y285684D01*
X245470Y285137D01*
Y288290D01*
D02*
G37*
G36*
X180340Y224133D02*
Y220980D01*
X183493D01*
X182946Y222300D01*
X181660Y223586D01*
X180340Y224133D01*
D02*
G37*
G36*
X177800D02*
X176480Y223586D01*
X175194Y222300D01*
X174647Y220980D01*
X177800D01*
Y224133D01*
D02*
G37*
G36*
X183493Y218440D02*
X180340D01*
Y215287D01*
X181660Y215834D01*
X182946Y217120D01*
X183493Y218440D01*
D02*
G37*
G36*
X177800D02*
X174647D01*
X175194Y217120D01*
X176480Y215834D01*
X177800Y215287D01*
Y218440D01*
D02*
G37*
G36*
X224790Y196193D02*
Y193040D01*
X227943D01*
X227396Y194360D01*
X226110Y195646D01*
X224790Y196193D01*
D02*
G37*
G36*
X222250D02*
X220930Y195646D01*
X219644Y194360D01*
X219097Y193040D01*
X222250D01*
Y196193D01*
D02*
G37*
G36*
X227943Y190500D02*
X224790D01*
Y187347D01*
X226110Y187894D01*
X227396Y189180D01*
X227943Y190500D01*
D02*
G37*
G36*
X222250D02*
X219097D01*
X219644Y189180D01*
X220930Y187894D01*
X222250Y187347D01*
Y190500D01*
D02*
G37*
%LPD*%
D15*
X368535Y336785D02*
Y338393D01*
X260775Y256015D02*
X262465D01*
X254000Y249240D02*
X260775Y256015D01*
X254000Y244050D02*
Y249240D01*
X262465Y256015D02*
X263950Y257500D01*
X253244Y256061D02*
X254000D01*
X251805Y257500D02*
X253244Y256061D01*
X244050Y257500D02*
X251805D01*
X221429Y161290D02*
X228600D01*
X153670Y229049D02*
Y245110D01*
Y229049D02*
X221429Y161290D01*
X150368Y227682D02*
X221840Y156210D01*
X280670D01*
X150368Y227682D02*
Y253978D01*
X227330Y146050D02*
X274320D01*
X147066Y226314D02*
Y259676D01*
Y226314D02*
X227330Y146050D01*
X217170Y370840D02*
X219710Y373380D01*
X217170Y300990D02*
Y327045D01*
X218059Y327934D01*
X217170Y300990D02*
X219710Y298450D01*
X218059Y327934D02*
Y348943D01*
X217170Y349832D02*
X218059Y348943D01*
X217170Y349832D02*
Y370840D01*
X268310Y264500D02*
X271780Y267970D01*
X263950Y264500D02*
X268310D01*
X275590Y273050D02*
X278130Y270510D01*
X267125Y251985D02*
X278130Y262990D01*
Y270510D01*
X229110Y273050D02*
X275590D01*
X260864Y361950D02*
X298450D01*
X249434Y373380D02*
X260864Y361950D01*
X232496Y356442D02*
X249434Y373380D01*
X232496Y285664D02*
Y356442D01*
X125730Y222250D02*
X134620D01*
X143764Y231394D01*
X237490Y233680D02*
X242570D01*
X231013Y240157D02*
X237490Y233680D01*
X263940D02*
X264160D01*
X254000Y243620D02*
X263940Y233680D01*
X254000Y243620D02*
Y244050D01*
X205740Y252730D02*
X206382D01*
X153670Y245110D02*
X162560Y254000D01*
X163471Y236220D02*
X168212Y240961D01*
X189230Y252730D02*
X233532Y208428D01*
X182585Y252730D02*
X230189Y205126D01*
X177800Y252730D02*
X182585D01*
X147066Y259676D02*
X168170Y280780D01*
X150368Y253978D02*
X168170Y271780D01*
X206382Y252730D02*
X208845Y250267D01*
X230189Y205126D02*
X245724D01*
X233532Y208428D02*
X247502D01*
X168212Y240961D02*
Y253302D01*
X213360Y254966D02*
X216204Y257810D01*
X208845Y250267D02*
X215977D01*
X220218Y254508D01*
X237490Y309880D02*
X238092D01*
X239631Y308341D01*
X264047D02*
X283758Y288630D01*
X216204Y257810D02*
X225133D01*
X239631Y308341D02*
X264047D01*
X220218Y254508D02*
X226500D01*
X230378Y258386D01*
X225133Y257810D02*
X227076Y259753D01*
X230378Y258386D02*
Y263756D01*
X231122Y264500D01*
X244050D01*
X227076Y259753D02*
Y266347D01*
X282475Y235485D02*
Y238406D01*
X281940Y234950D02*
X282475Y235485D01*
X287401Y243332D02*
X290830D01*
X282475Y238406D02*
X287401Y243332D01*
X276860Y189230D02*
X302260D01*
X306070Y185420D01*
X220345Y240157D02*
X231013D01*
X217170Y243332D02*
X220345Y240157D01*
X244050Y250500D02*
Y257500D01*
X209423Y345313D02*
X213233D01*
X213360Y345440D01*
X143764Y279654D02*
X209423Y345313D01*
X143764Y231394D02*
Y279654D01*
X247502Y208428D02*
X288290Y167640D01*
X321310Y306070D02*
X328930D01*
X317500Y309880D02*
X321310Y306070D01*
X317500Y309880D02*
Y334010D01*
X232496Y285664D02*
X236220Y281940D01*
X287020Y156588D02*
X288290Y157858D01*
X287020Y146050D02*
Y156588D01*
X288290Y157858D02*
Y167640D01*
X230396Y269667D02*
X248933D01*
X227076Y266347D02*
X230396Y269667D01*
X220345Y267843D02*
X223903D01*
X229110Y273050D01*
X217170Y264668D02*
X220345Y267843D01*
X227742Y276352D02*
X262382D01*
X208826Y271145D02*
X222535D01*
X227742Y276352D01*
X328930Y306070D02*
X332740Y302260D01*
Y236220D02*
Y302260D01*
X328930Y232410D02*
X332740Y236220D01*
X311150Y232410D02*
X328930D01*
X266596Y300404D02*
X282180Y284820D01*
X237195Y300404D02*
X266596D01*
X314579Y249809D02*
Y257216D01*
X287077Y288630D02*
X304546Y271161D01*
X283758Y288630D02*
X287077D01*
X300736Y265671D02*
Y269583D01*
X309345Y255805D02*
Y257062D01*
X282180Y284820D02*
X285499D01*
X300736Y265671D02*
X309345Y257062D01*
Y255805D02*
X309880Y255270D01*
X285499Y284820D02*
X300736Y269583D01*
X304546Y267249D02*
X314579Y257216D01*
X304546Y267249D02*
Y271161D01*
X262382Y276352D02*
X265430Y279400D01*
X328930Y316230D02*
X347980D01*
X368535Y336785D01*
X309880Y245110D02*
X314579Y249809D01*
X273050Y168910D02*
Y177800D01*
X245724Y205126D02*
X273050Y177800D01*
X168212Y253302D02*
X174599Y259689D01*
X203809D01*
X205740Y261620D01*
Y268059D02*
X208826Y271145D01*
X205740Y261620D02*
Y268059D01*
X265435Y251985D02*
X267125D01*
X263950Y250500D02*
X265435Y251985D01*
Y244985D02*
X267718D01*
X287401Y264668D01*
X290830D01*
X263950Y243500D02*
X265435Y244985D01*
X248933Y269667D02*
X254000Y264600D01*
Y263950D02*
Y264600D01*
D28*
X217170Y264668D02*
D03*
Y243332D02*
D03*
X290830Y264668D02*
D03*
Y243332D02*
D03*
D79*
X273050Y373380D02*
D03*
X234950D02*
D03*
D80*
X401400Y287000D02*
D03*
Y221000D02*
D03*
D81*
Y287000D02*
D03*
Y221000D02*
D03*
D82*
X215900Y398780D02*
D03*
X254000Y256061D02*
D03*
X167280Y224790D02*
D03*
X221890Y325120D02*
D03*
X259080Y373380D02*
D03*
X271780Y267970D02*
D03*
X240030Y134620D02*
D03*
X289560Y402590D02*
D03*
X246740Y289560D02*
D03*
X290830Y292100D02*
D03*
X266700Y331470D02*
D03*
X249434Y373380D02*
D03*
X125730Y222250D02*
D03*
X223520Y191770D02*
D03*
X229870Y233680D02*
D03*
X239538Y216561D02*
D03*
X242570Y233680D02*
D03*
X205740Y252730D02*
D03*
X162560Y254000D02*
D03*
X219710Y298450D02*
D03*
X163471Y236220D02*
D03*
X189230Y252730D02*
D03*
X177800D02*
D03*
X177170Y280780D02*
D03*
X168170D02*
D03*
Y271780D02*
D03*
X213360Y254966D02*
D03*
X227797Y309270D02*
D03*
X237490Y309880D02*
D03*
X264160Y233680D02*
D03*
X281940Y234950D02*
D03*
X355600Y250190D02*
D03*
X361950Y229870D02*
D03*
X322580Y210820D02*
D03*
X306070Y185420D02*
D03*
X276860Y189230D02*
D03*
X179070Y219710D02*
D03*
X191770Y232410D02*
D03*
X213360Y345440D02*
D03*
X318770Y299720D02*
D03*
X252730Y323980D02*
D03*
X207370Y325120D02*
D03*
X274320Y146050D02*
D03*
X287020D02*
D03*
X280670Y156210D02*
D03*
X228600Y161290D02*
D03*
X317500Y334010D02*
D03*
X311150Y232410D02*
D03*
X298450Y361950D02*
D03*
X219710Y373380D02*
D03*
X237195Y300404D02*
D03*
X236220Y281940D02*
D03*
X328930Y316230D02*
D03*
X309880Y255270D02*
D03*
Y245110D02*
D03*
X273050Y168910D02*
D03*
X265430Y279400D02*
D03*
D83*
X389801Y319837D02*
D03*
Y199898D02*
D03*
X359816Y299847D02*
D03*
X369811Y159918D02*
D03*
X339827Y139929D02*
D03*
X299847Y339827D02*
D03*
X229883Y119939D02*
D03*
X209893D02*
D03*
X179908Y379806D02*
D03*
Y179908D02*
D03*
X189903Y159918D02*
D03*
X179908Y139929D02*
D03*
X189903Y119939D02*
D03*
X169913Y319837D02*
D03*
X159918Y139929D02*
D03*
X149923Y359816D02*
D03*
X139929Y339827D02*
D03*
X149923Y319837D02*
D03*
X139929Y299847D02*
D03*
X149923Y199898D02*
D03*
X139929Y179908D02*
D03*
X129934Y319837D02*
D03*
Y279857D02*
D03*
X119939Y259867D02*
D03*
X109944Y279857D02*
D03*
Y239878D02*
D03*
X205740Y157480D02*
D03*
Y139700D02*
D03*
X368535Y320613D02*
D03*
Y338393D02*
D03*
D84*
X342900Y342900D02*
D03*
Y165100D02*
D03*
X165100D02*
D03*
Y342900D02*
D03*
D97*
X244050Y250500D02*
D03*
Y243500D02*
D03*
Y257500D02*
D03*
X263950Y243500D02*
D03*
Y257500D02*
D03*
Y250500D02*
D03*
X244050Y264500D02*
D03*
X263950D02*
D03*
D98*
X254000Y244050D02*
D03*
Y263950D02*
D03*
M02*
