G04*
G04 #@! TF.GenerationSoftware,Altium Limited,Altium Designer,23.3.1 (30)*
G04*
G04 Layer_Physical_Order=3*
G04 Layer_Color=128*
%FSLAX44Y44*%
%MOMM*%
G71*
G04*
G04 #@! TF.SameCoordinates,607B9DED-B9D6-4049-9DE7-3198A38A4F88*
G04*
G04*
G04 #@! TF.FilePolarity,Negative*
G04*
G01*
G75*
%ADD82C,1.0160*%
%ADD84C,2.1160*%
%ADD85O,2.2160X1.5160*%
%ADD86C,1.5160*%
G04:AMPARAMS|DCode=87|XSize=2.544mm|YSize=2.544mm|CornerRadius=0mm|HoleSize=0mm|Usage=FLASHONLY|Rotation=0.000|XOffset=0mm|YOffset=0mm|HoleType=Round|Shape=Relief|Width=0.254mm|Gap=0.254mm|Entries=4|*
%AMTHD87*
7,0,0,2.5440,2.0360,0.2540,45*
%
%ADD87THD87*%
%ADD88C,2.0360*%
%ADD89C,1.2192*%
G04:AMPARAMS|DCode=90|XSize=1.7272mm|YSize=1.7272mm|CornerRadius=0mm|HoleSize=0mm|Usage=FLASHONLY|Rotation=0.000|XOffset=0mm|YOffset=0mm|HoleType=Round|Shape=Relief|Width=0.254mm|Gap=0.254mm|Entries=4|*
%AMTHD90*
7,0,0,1.7272,1.2192,0.2540,45*
%
%ADD90THD90*%
%ADD92C,3.1750*%
D82*
X421077Y314811D02*
G03*
X421077Y193189I-167077J-60811D01*
G01*
Y314811D01*
D84*
X339090Y140970D02*
D03*
X313690D02*
D03*
D85*
X401400Y287000D02*
D03*
Y221000D02*
D03*
D86*
Y287000D02*
D03*
Y221000D02*
D03*
D87*
X292100Y379730D02*
D03*
D88*
X317500D02*
D03*
X266700D02*
D03*
X241300D02*
D03*
X215900D02*
D03*
X190500D02*
D03*
D89*
X364370Y168910D02*
D03*
X265430Y233680D02*
D03*
X334010Y194310D02*
D03*
X273050Y256540D02*
D03*
X233680Y266700D02*
D03*
X248920Y280670D02*
D03*
X332740Y298450D02*
D03*
X271780Y226060D02*
D03*
X238760Y220980D02*
D03*
X165100Y256540D02*
D03*
X147320D02*
D03*
X311150Y224790D02*
D03*
X194310Y232410D02*
D03*
X181610D02*
D03*
X233680Y256540D02*
D03*
X199390Y265430D02*
D03*
Y252730D02*
D03*
X264160Y280670D02*
D03*
D90*
X214755Y305835D02*
D03*
X213720Y210820D02*
D03*
X299720Y311020D02*
D03*
X264160Y303160D02*
D03*
X248920D02*
D03*
X146050Y246380D02*
D03*
X184150Y340360D02*
D03*
X144780Y321310D02*
D03*
X285750Y234950D02*
D03*
X284480Y186690D02*
D03*
X198120Y242570D02*
D03*
X279400Y280670D02*
D03*
X254000Y254000D02*
D03*
D92*
Y101600D02*
D03*
X148590Y365760D02*
D03*
X359410D02*
D03*
M02*
