M48
;Layer_Color=9474304
;FILE_FORMAT=4:4
METRIC,LZ
;TYPE=PLATED
T1F00S00C0.2032
T2F00S00C0.2540
T3F00S00C0.3810
T5F00S00C2.0320
;TYPE=NON_PLATED
T6F00S00C0.5000
T7F00S00C1.0200
%
T01
X0012573Y0022225
X0016728Y0022479
X00163471Y0023622
X0016256Y00254
X001778Y0025273
X0018923
X0020574
X0021336Y00254966
X0022987Y0023368
X0024257
X00239538Y00216561
X0022352Y0019177
X002286Y0016129
X0024003Y0013462
X0027432Y0014605
X0028702
X0028067Y0015621
X0027305Y0016891
X0027686Y0018923
X0030607Y0018542
X0032258Y0021082
X0031115Y0023241
X0030988Y0024511
Y0025527
X0028194Y0023495
X0026416Y0023368
X00254Y00256061
X0027178Y0026797
X0026543Y002794
X0024674Y0028956
X0023622Y0028194
X00237195Y00300404
X0023749Y0030988
X00227797Y0030927
X0021971Y0029845
X0022189Y0032512
X0020737
X0021336Y0034544
X0021971Y0037338
X00249434
X0025908
X002667Y0033147
X0025273Y0032398
X0029083Y002921
X0031877Y0029972
X0032893Y0031623
X003175Y0033401
X0029845Y0036195
X003556Y0025019
X0036195Y0022987
X0019177Y0023241
X0017907Y0021971
X0017717Y0028078
X0016817
Y0027178
X002159Y0039878
X0028956Y0040259
T02
X00159918Y00139929
X00179908
X00189903Y00159918
X00179908Y00179908
X00139929
X00149923Y00199898
X00109944Y00239878
X00119939Y00259867
X00129934Y00279857
X00109944
X00139929Y00299847
X00149923Y00319837
X00169913
X00129934
X00139929Y00339827
X00149923Y00359816
X00179908Y00379806
X00299847Y00339827
X00359816Y00299847
X00389801Y00319837
Y00199898
X00369811Y00159918
X00339827Y00139929
X00229883Y00119939
X00209893
X00189903
T03
X0020574Y001397
Y0015748
X00368535Y00320613
Y00338393
T05
X001651Y001651
X003429
Y003429
X001651
T06
X004014Y00221
Y00287
T07
X0023495Y0037338
X0027305
M30
